<?xml version="1.0" encoding="UTF-8"?>
<svg xmlns="http://www.w3.org/2000/svg" xmlns:xlink="http://www.w3.org/1999/xlink" width="504pt" height="504pt" viewBox="0 0 504 504" version="1.1">
<defs>
<clipPath id="clip1">
  <path d="M 30.824219 5.480469 L 498.519531 5.480469 L 498.519531 473.121094 L 30.824219 473.121094 Z M 30.824219 5.480469 "/>
</clipPath>
<clipPath id="clip2">
  <path d="M 30.824219 468 L 498.519531 468 L 498.519531 470 L 30.824219 470 Z M 30.824219 468 "/>
</clipPath>
<clipPath id="clip3">
  <path d="M 30.824219 332 L 498.519531 332 L 498.519531 334 L 30.824219 334 Z M 30.824219 332 "/>
</clipPath>
<clipPath id="clip4">
  <path d="M 30.824219 196 L 498.519531 196 L 498.519531 198 L 30.824219 198 Z M 30.824219 196 "/>
</clipPath>
<clipPath id="clip5">
  <path d="M 30.824219 60 L 498.519531 60 L 498.519531 62 L 30.824219 62 Z M 30.824219 60 "/>
</clipPath>
<clipPath id="clip6">
  <path d="M 94 5.480469 L 95 5.480469 L 95 473.121094 L 94 473.121094 Z M 94 5.480469 "/>
</clipPath>
<clipPath id="clip7">
  <path d="M 179 5.480469 L 180 5.480469 L 180 473.121094 L 179 473.121094 Z M 179 5.480469 "/>
</clipPath>
<clipPath id="clip8">
  <path d="M 264 5.480469 L 265 5.480469 L 265 473.121094 L 264 473.121094 Z M 264 5.480469 "/>
</clipPath>
<clipPath id="clip9">
  <path d="M 349 5.480469 L 350 5.480469 L 350 473.121094 L 349 473.121094 Z M 349 5.480469 "/>
</clipPath>
<clipPath id="clip10">
  <path d="M 434 5.480469 L 436 5.480469 L 436 473.121094 L 434 473.121094 Z M 434 5.480469 "/>
</clipPath>
<clipPath id="clip11">
  <path d="M 30.824219 400 L 498.519531 400 L 498.519531 402 L 30.824219 402 Z M 30.824219 400 "/>
</clipPath>
<clipPath id="clip12">
  <path d="M 30.824219 264 L 498.519531 264 L 498.519531 266 L 30.824219 266 Z M 30.824219 264 "/>
</clipPath>
<clipPath id="clip13">
  <path d="M 30.824219 128 L 498.519531 128 L 498.519531 130 L 30.824219 130 Z M 30.824219 128 "/>
</clipPath>
<clipPath id="clip14">
  <path d="M 51 5.480469 L 53 5.480469 L 53 473.121094 L 51 473.121094 Z M 51 5.480469 "/>
</clipPath>
<clipPath id="clip15">
  <path d="M 136 5.480469 L 138 5.480469 L 138 473.121094 L 136 473.121094 Z M 136 5.480469 "/>
</clipPath>
<clipPath id="clip16">
  <path d="M 221 5.480469 L 223 5.480469 L 223 473.121094 L 221 473.121094 Z M 221 5.480469 "/>
</clipPath>
<clipPath id="clip17">
  <path d="M 306 5.480469 L 308 5.480469 L 308 473.121094 L 306 473.121094 Z M 306 5.480469 "/>
</clipPath>
<clipPath id="clip18">
  <path d="M 391 5.480469 L 393 5.480469 L 393 473.121094 L 391 473.121094 Z M 391 5.480469 "/>
</clipPath>
<clipPath id="clip19">
  <path d="M 476 5.480469 L 478 5.480469 L 478 473.121094 L 476 473.121094 Z M 476 5.480469 "/>
</clipPath>
</defs>
<g id="surface74">
<rect x="0" y="0" width="504" height="504" style="fill:rgb(100%,100%,100%);fill-opacity:1;stroke:none;"/>
<rect x="0" y="0" width="504" height="504" style="fill:rgb(100%,100%,100%);fill-opacity:1;stroke:none;"/>
<path style="fill:none;stroke-width:1.066978;stroke-linecap:round;stroke-linejoin:round;stroke:rgb(100%,100%,100%);stroke-opacity:1;stroke-miterlimit:10;" d="M 0 504 L 504 504 L 504 0 L 0 0 Z M 0 504 "/>
<g clip-path="url(#clip1)" clip-rule="nonzero">
<path style=" stroke:none;fill-rule:nonzero;fill:rgb(92.156863%,92.156863%,92.156863%);fill-opacity:1;" d="M 30.824219 473.117188 L 498.519531 473.117188 L 498.519531 5.476562 L 30.824219 5.476562 Z M 30.824219 473.117188 "/>
</g>
<g clip-path="url(#clip2)" clip-rule="nonzero">
<path style="fill:none;stroke-width:0.533489;stroke-linecap:butt;stroke-linejoin:round;stroke:rgb(100%,100%,100%);stroke-opacity:1;stroke-miterlimit:10;" d="M 30.824219 468.867188 L 498.519531 468.867188 "/>
</g>
<g clip-path="url(#clip3)" clip-rule="nonzero">
<path style="fill:none;stroke-width:0.533489;stroke-linecap:butt;stroke-linejoin:round;stroke:rgb(100%,100%,100%);stroke-opacity:1;stroke-miterlimit:10;" d="M 30.824219 332.828125 L 498.519531 332.828125 "/>
</g>
<g clip-path="url(#clip4)" clip-rule="nonzero">
<path style="fill:none;stroke-width:0.533489;stroke-linecap:butt;stroke-linejoin:round;stroke:rgb(100%,100%,100%);stroke-opacity:1;stroke-miterlimit:10;" d="M 30.824219 196.785156 L 498.519531 196.785156 "/>
</g>
<g clip-path="url(#clip5)" clip-rule="nonzero">
<path style="fill:none;stroke-width:0.533489;stroke-linecap:butt;stroke-linejoin:round;stroke:rgb(100%,100%,100%);stroke-opacity:1;stroke-miterlimit:10;" d="M 30.824219 60.746094 L 498.519531 60.746094 "/>
</g>
<g clip-path="url(#clip6)" clip-rule="nonzero">
<path style="fill:none;stroke-width:0.533489;stroke-linecap:butt;stroke-linejoin:round;stroke:rgb(100%,100%,100%);stroke-opacity:1;stroke-miterlimit:10;" d="M 94.601562 473.117188 L 94.601562 5.480469 "/>
</g>
<g clip-path="url(#clip7)" clip-rule="nonzero">
<path style="fill:none;stroke-width:0.533489;stroke-linecap:butt;stroke-linejoin:round;stroke:rgb(100%,100%,100%);stroke-opacity:1;stroke-miterlimit:10;" d="M 179.636719 473.117188 L 179.636719 5.480469 "/>
</g>
<g clip-path="url(#clip8)" clip-rule="nonzero">
<path style="fill:none;stroke-width:0.533489;stroke-linecap:butt;stroke-linejoin:round;stroke:rgb(100%,100%,100%);stroke-opacity:1;stroke-miterlimit:10;" d="M 264.671875 473.117188 L 264.671875 5.480469 "/>
</g>
<g clip-path="url(#clip9)" clip-rule="nonzero">
<path style="fill:none;stroke-width:0.533489;stroke-linecap:butt;stroke-linejoin:round;stroke:rgb(100%,100%,100%);stroke-opacity:1;stroke-miterlimit:10;" d="M 349.707031 473.117188 L 349.707031 5.480469 "/>
</g>
<g clip-path="url(#clip10)" clip-rule="nonzero">
<path style="fill:none;stroke-width:0.533489;stroke-linecap:butt;stroke-linejoin:round;stroke:rgb(100%,100%,100%);stroke-opacity:1;stroke-miterlimit:10;" d="M 434.742188 473.117188 L 434.742188 5.480469 "/>
</g>
<g clip-path="url(#clip11)" clip-rule="nonzero">
<path style="fill:none;stroke-width:1.066978;stroke-linecap:butt;stroke-linejoin:round;stroke:rgb(100%,100%,100%);stroke-opacity:1;stroke-miterlimit:10;" d="M 30.824219 400.847656 L 498.519531 400.847656 "/>
</g>
<g clip-path="url(#clip12)" clip-rule="nonzero">
<path style="fill:none;stroke-width:1.066978;stroke-linecap:butt;stroke-linejoin:round;stroke:rgb(100%,100%,100%);stroke-opacity:1;stroke-miterlimit:10;" d="M 30.824219 264.804688 L 498.519531 264.804688 "/>
</g>
<g clip-path="url(#clip13)" clip-rule="nonzero">
<path style="fill:none;stroke-width:1.066978;stroke-linecap:butt;stroke-linejoin:round;stroke:rgb(100%,100%,100%);stroke-opacity:1;stroke-miterlimit:10;" d="M 30.824219 128.765625 L 498.519531 128.765625 "/>
</g>
<g clip-path="url(#clip14)" clip-rule="nonzero">
<path style="fill:none;stroke-width:1.066978;stroke-linecap:butt;stroke-linejoin:round;stroke:rgb(100%,100%,100%);stroke-opacity:1;stroke-miterlimit:10;" d="M 52.085938 473.117188 L 52.085938 5.480469 "/>
</g>
<g clip-path="url(#clip15)" clip-rule="nonzero">
<path style="fill:none;stroke-width:1.066978;stroke-linecap:butt;stroke-linejoin:round;stroke:rgb(100%,100%,100%);stroke-opacity:1;stroke-miterlimit:10;" d="M 137.121094 473.117188 L 137.121094 5.480469 "/>
</g>
<g clip-path="url(#clip16)" clip-rule="nonzero">
<path style="fill:none;stroke-width:1.066978;stroke-linecap:butt;stroke-linejoin:round;stroke:rgb(100%,100%,100%);stroke-opacity:1;stroke-miterlimit:10;" d="M 222.15625 473.117188 L 222.15625 5.480469 "/>
</g>
<g clip-path="url(#clip17)" clip-rule="nonzero">
<path style="fill:none;stroke-width:1.066978;stroke-linecap:butt;stroke-linejoin:round;stroke:rgb(100%,100%,100%);stroke-opacity:1;stroke-miterlimit:10;" d="M 307.191406 473.117188 L 307.191406 5.480469 "/>
</g>
<g clip-path="url(#clip18)" clip-rule="nonzero">
<path style="fill:none;stroke-width:1.066978;stroke-linecap:butt;stroke-linejoin:round;stroke:rgb(100%,100%,100%);stroke-opacity:1;stroke-miterlimit:10;" d="M 392.226562 473.117188 L 392.226562 5.480469 "/>
</g>
<g clip-path="url(#clip19)" clip-rule="nonzero">
<path style="fill:none;stroke-width:1.066978;stroke-linecap:butt;stroke-linejoin:round;stroke:rgb(100%,100%,100%);stroke-opacity:1;stroke-miterlimit:10;" d="M 477.261719 473.117188 L 477.261719 5.480469 "/>
</g>
<path style="fill:none;stroke-width:1.066978;stroke-linecap:butt;stroke-linejoin:round;stroke:rgb(0%,0%,0%);stroke-opacity:1;stroke-miterlimit:10;" d="M 52.085938 451.863281 L 53.785156 450.160156 L 55.484375 448.460938 L 57.1875 446.761719 L 58.886719 445.058594 L 60.589844 443.359375 L 62.289062 441.660156 L 63.988281 439.957031 L 65.691406 438.257812 L 80.996094 422.953125 L 82.699219 421.253906 L 84.398438 419.550781 L 86.097656 417.851562 L 87.800781 416.152344 L 89.5 414.449219 L 91.199219 412.75 L 92.902344 411.050781 L 94.601562 409.347656 L 96.304688 407.648438 L 98.003906 405.949219 L 99.703125 404.246094 L 101.40625 402.546875 L 116.710938 387.242188 L 118.414062 385.542969 L 120.113281 383.839844 L 121.8125 382.140625 L 123.515625 380.441406 L 125.214844 378.742188 L 126.914062 377.039062 L 128.617188 375.339844 L 138.820312 365.136719 L 140.523438 363.4375 L 142.222656 361.734375 L 143.921875 360.035156 L 145.625 358.335938 L 147.324219 356.632812 L 149.023438 354.933594 L 150.726562 353.234375 L 152.425781 351.53125 L 154.128906 349.832031 L 155.828125 348.132812 L 157.527344 346.429688 L 159.230469 344.730469 L 160.929688 343.03125 L 162.628906 341.328125 L 164.332031 339.628906 L 174.535156 329.425781 L 176.238281 327.726562 L 177.9375 326.023438 L 179.636719 324.324219 L 181.339844 322.625 L 183.039062 320.921875 L 184.738281 319.222656 L 186.441406 317.523438 L 188.140625 315.820312 L 189.84375 314.121094 L 191.542969 312.421875 L 193.242188 310.71875 L 194.945312 309.019531 L 196.644531 307.320312 L 198.34375 305.617188 L 200.046875 303.917969 L 210.25 293.714844 L 211.953125 292.015625 L 213.652344 290.3125 L 215.351562 288.613281 L 217.054688 286.914062 L 218.753906 285.210938 L 220.453125 283.511719 L 222.15625 281.8125 L 223.855469 280.109375 L 225.558594 278.410156 L 227.257812 276.710938 L 228.957031 275.007812 L 230.660156 273.308594 L 232.359375 271.609375 L 234.058594 269.90625 L 235.761719 268.207031 L 245.964844 258.003906 L 247.667969 256.304688 L 249.367188 254.601562 L 251.066406 252.902344 L 252.769531 251.203125 L 254.46875 249.5 L 256.167969 247.800781 L 257.871094 246.101562 L 259.570312 244.398438 L 261.273438 242.699219 L 273.175781 230.796875 L 274.878906 229.097656 L 276.578125 227.394531 L 278.277344 225.695312 L 279.980469 223.996094 L 281.679688 222.292969 L 283.382812 220.59375 L 285.082031 218.894531 L 286.78125 217.191406 L 288.484375 215.492188 L 290.183594 213.792969 L 291.882812 212.089844 L 293.585938 210.390625 L 308.890625 195.085938 L 310.59375 193.386719 L 312.292969 191.683594 L 313.992188 189.984375 L 315.695312 188.285156 L 317.394531 186.582031 L 319.097656 184.882812 L 320.796875 183.183594 L 322.496094 181.480469 L 324.199219 179.78125 L 325.898438 178.082031 L 327.597656 176.378906 L 329.300781 174.679688 L 344.605469 159.375 L 346.308594 157.675781 L 348.007812 155.972656 L 349.707031 154.273438 L 351.410156 152.574219 L 353.109375 150.871094 L 354.8125 149.171875 L 356.511719 147.472656 L 358.210938 145.769531 L 359.914062 144.070312 L 361.613281 142.371094 L 363.3125 140.667969 L 365.015625 138.96875 L 375.21875 128.765625 L 376.921875 127.066406 L 378.621094 125.363281 L 380.320312 123.664062 L 382.023438 121.964844 L 383.722656 120.261719 L 385.421875 118.5625 L 387.125 116.863281 L 388.824219 115.160156 L 390.527344 113.460938 L 392.226562 111.761719 L 393.925781 110.058594 L 395.628906 108.359375 L 397.328125 106.660156 L 399.027344 104.957031 L 400.730469 103.257812 L 402.429688 101.558594 L 404.132812 99.859375 L 405.832031 98.15625 L 407.53125 96.457031 L 409.234375 94.757812 L 410.933594 93.054688 L 412.636719 91.355469 L 414.335938 89.65625 L 416.035156 87.953125 L 417.738281 86.253906 L 419.4375 84.554688 L 421.136719 82.851562 L 422.839844 81.152344 L 438.144531 65.847656 L 439.847656 64.148438 L 441.546875 62.445312 L 443.246094 60.746094 L 444.949219 59.046875 L 446.648438 57.34375 L 448.351562 55.644531 L 450.050781 53.945312 L 451.75 52.242188 L 453.453125 50.542969 L 455.152344 48.84375 L 456.851562 47.140625 L 458.554688 45.441406 L 473.859375 30.136719 L 475.5625 28.4375 L 477.261719 26.734375 "/>
<path style=" stroke:none;fill-rule:evenodd;fill:rgb(30.196078%,30.196078%,30.196078%);fill-opacity:1;" d="M 18.460938 401.878906 L 18.460938 401.191406 L 20.609375 401.191406 L 20.609375 401.878906 Z M 18.460938 401.878906 "/>
<path style=" stroke:none;fill-rule:evenodd;fill:rgb(30.196078%,30.196078%,30.196078%);fill-opacity:1;" d="M 24.785156 402.503906 L 24.785156 403.875 L 24.054688 403.875 L 24.054688 402.503906 L 21.203125 402.503906 L 21.203125 401.902344 L 23.972656 397.820312 L 24.785156 397.820312 L 24.785156 401.894531 L 25.636719 401.894531 L 25.636719 402.503906 Z M 24.054688 398.691406 L 24.054688 398.695312 L 24.050781 398.703125 L 24.046875 398.707031 L 24.039062 398.722656 L 24.035156 398.734375 L 24.03125 398.742188 L 24.023438 398.753906 L 24.019531 398.765625 L 24.003906 398.789062 L 24 398.800781 L 23.992188 398.816406 L 23.984375 398.828125 L 23.976562 398.84375 L 23.96875 398.855469 L 23.953125 398.886719 L 23.945312 398.898438 L 23.933594 398.914062 L 23.910156 398.960938 L 23.898438 398.976562 L 23.882812 399.007812 L 23.871094 399.027344 L 23.855469 399.058594 L 23.84375 399.074219 L 23.828125 399.105469 L 23.820312 399.117188 L 23.8125 399.132812 L 23.796875 399.15625 L 23.789062 399.171875 L 23.78125 399.179688 L 23.765625 399.203125 L 22.214844 401.488281 L 22.203125 401.511719 L 22.1875 401.527344 L 22.183594 401.539062 L 22.175781 401.546875 L 22.160156 401.570312 L 22.152344 401.578125 L 22.105469 401.648438 L 22.09375 401.660156 L 22.054688 401.71875 L 22.035156 401.738281 L 22.011719 401.773438 L 22 401.785156 L 21.984375 401.808594 L 21.976562 401.816406 L 21.960938 401.839844 L 21.9375 401.863281 L 21.933594 401.871094 L 21.925781 401.878906 L 21.921875 401.886719 L 21.914062 401.894531 L 24.054688 401.894531 Z M 24.054688 398.691406 "/>
<path style=" stroke:none;fill-rule:evenodd;fill:rgb(30.196078%,30.196078%,30.196078%);fill-opacity:1;" d="M 25.550781 264.804688 L 25.550781 264.976562 L 25.535156 265.304688 L 25.523438 265.457031 L 25.507812 265.609375 L 25.492188 265.753906 L 25.46875 265.890625 L 25.445312 266.023438 L 25.414062 266.152344 L 25.382812 266.273438 L 25.347656 266.390625 L 25.3125 266.503906 L 25.273438 266.609375 L 25.234375 266.710938 L 25.1875 266.8125 L 25.140625 266.90625 L 25.09375 266.996094 L 25.042969 267.078125 L 24.988281 267.160156 L 24.933594 267.234375 L 24.875 267.308594 L 24.8125 267.375 L 24.753906 267.4375 L 24.6875 267.496094 L 24.621094 267.550781 L 24.554688 267.601562 L 24.484375 267.648438 L 24.414062 267.6875 L 24.335938 267.726562 L 24.261719 267.761719 L 24.105469 267.816406 L 24.023438 267.839844 L 23.945312 267.863281 L 23.863281 267.878906 L 23.777344 267.894531 L 23.695312 267.90625 L 23.609375 267.914062 L 23.523438 267.917969 L 23.347656 267.917969 L 23.261719 267.914062 L 23.175781 267.90625 L 23.09375 267.894531 L 23.007812 267.878906 L 22.925781 267.863281 L 22.847656 267.839844 L 22.765625 267.816406 L 22.6875 267.789062 L 22.613281 267.761719 L 22.535156 267.726562 L 22.460938 267.6875 L 22.390625 267.648438 L 22.320312 267.601562 L 22.253906 267.550781 L 22.1875 267.496094 L 22.125 267.4375 L 22.0625 267.375 L 22.003906 267.308594 L 21.945312 267.234375 L 21.890625 267.160156 L 21.839844 267.082031 L 21.789062 266.996094 L 21.742188 266.90625 L 21.695312 266.8125 L 21.652344 266.714844 L 21.613281 266.613281 L 21.574219 266.507812 L 21.535156 266.394531 L 21.503906 266.277344 L 21.472656 266.15625 L 21.445312 266.027344 L 21.421875 265.894531 L 21.402344 265.753906 L 21.382812 265.609375 L 21.371094 265.460938 L 21.359375 265.304688 L 21.351562 265.144531 L 21.34375 264.976562 L 21.34375 264.625 L 21.351562 264.449219 L 21.359375 264.285156 L 21.371094 264.121094 L 21.382812 263.96875 L 21.402344 263.820312 L 21.421875 263.679688 L 21.445312 263.542969 L 21.472656 263.414062 L 21.503906 263.292969 L 21.535156 263.175781 L 21.574219 263.0625 L 21.613281 262.953125 L 21.652344 262.851562 L 21.695312 262.75 L 21.742188 262.65625 L 21.789062 262.570312 L 21.839844 262.484375 L 21.894531 262.40625 L 21.949219 262.332031 L 22.066406 262.199219 L 22.191406 262.082031 L 22.257812 262.03125 L 22.328125 261.984375 L 22.398438 261.941406 L 22.46875 261.902344 L 22.542969 261.867188 L 22.621094 261.835938 L 22.777344 261.78125 L 22.941406 261.742188 L 23.023438 261.726562 L 23.109375 261.710938 L 23.28125 261.695312 L 23.460938 261.6875 L 23.632812 261.695312 L 23.71875 261.703125 L 23.800781 261.710938 L 23.964844 261.742188 L 24.121094 261.78125 L 24.199219 261.808594 L 24.273438 261.835938 L 24.351562 261.867188 L 24.421875 261.902344 L 24.496094 261.941406 L 24.566406 261.984375 L 24.632812 262.03125 L 24.699219 262.082031 L 24.824219 262.199219 L 24.941406 262.332031 L 24.996094 262.40625 L 25.050781 262.484375 L 25.101562 262.570312 L 25.148438 262.65625 L 25.195312 262.75 L 25.238281 262.851562 L 25.277344 262.953125 L 25.316406 263.0625 L 25.351562 263.175781 L 25.386719 263.292969 L 25.417969 263.414062 L 25.445312 263.542969 L 25.46875 263.679688 L 25.492188 263.820312 L 25.511719 263.96875 L 25.523438 264.121094 L 25.535156 264.285156 L 25.542969 264.449219 L 25.550781 264.625 Z M 24.765625 264.804688 L 24.761719 264.664062 L 24.761719 264.523438 L 24.757812 264.394531 L 24.75 264.265625 L 24.742188 264.144531 L 24.734375 264.027344 L 24.722656 263.914062 L 24.710938 263.804688 L 24.695312 263.703125 L 24.679688 263.605469 L 24.660156 263.511719 L 24.640625 263.421875 L 24.621094 263.335938 L 24.597656 263.253906 L 24.570312 263.171875 L 24.546875 263.097656 L 24.519531 263.027344 L 24.488281 262.960938 L 24.457031 262.898438 L 24.425781 262.839844 L 24.355469 262.730469 L 24.277344 262.636719 L 24.238281 262.59375 L 24.152344 262.523438 L 24.105469 262.488281 L 24.0625 262.460938 L 24.011719 262.4375 L 23.964844 262.414062 L 23.863281 262.375 L 23.808594 262.359375 L 23.699219 262.335938 L 23.582031 262.320312 L 23.523438 262.316406 L 23.398438 262.316406 L 23.335938 262.320312 L 23.273438 262.328125 L 23.214844 262.335938 L 23.097656 262.359375 L 23.042969 262.375 L 22.988281 262.394531 L 22.9375 262.414062 L 22.835938 262.460938 L 22.742188 262.523438 L 22.699219 262.558594 L 22.65625 262.597656 L 22.617188 262.640625 L 22.574219 262.6875 L 22.539062 262.738281 L 22.5 262.789062 L 22.464844 262.84375 L 22.433594 262.902344 L 22.402344 262.964844 L 22.371094 263.03125 L 22.34375 263.101562 L 22.316406 263.179688 L 22.292969 263.257812 L 22.269531 263.339844 L 22.25 263.425781 L 22.230469 263.515625 L 22.210938 263.609375 L 22.195312 263.707031 L 22.179688 263.808594 L 22.167969 263.917969 L 22.15625 264.03125 L 22.148438 264.148438 L 22.140625 264.269531 L 22.132812 264.394531 L 22.128906 264.527344 L 22.125 264.664062 L 22.125 264.941406 L 22.128906 265.074219 L 22.132812 265.203125 L 22.148438 265.445312 L 22.15625 265.5625 L 22.167969 265.671875 L 22.179688 265.777344 L 22.195312 265.878906 L 22.210938 265.976562 L 22.230469 266.070312 L 22.25 266.160156 L 22.273438 266.246094 L 22.296875 266.328125 L 22.320312 266.40625 L 22.347656 266.484375 L 22.375 266.554688 L 22.4375 266.6875 L 22.46875 266.746094 L 22.503906 266.800781 L 22.542969 266.855469 L 22.578125 266.90625 L 22.617188 266.953125 L 22.660156 266.996094 L 22.703125 267.035156 L 22.746094 267.070312 L 22.792969 267.105469 L 22.839844 267.136719 L 22.886719 267.164062 L 22.9375 267.1875 L 23.039062 267.226562 L 23.148438 267.257812 L 23.207031 267.269531 L 23.261719 267.277344 L 23.324219 267.28125 L 23.382812 267.285156 L 23.445312 267.289062 L 23.503906 267.285156 L 23.566406 267.28125 L 23.621094 267.277344 L 23.679688 267.269531 L 23.734375 267.257812 L 23.84375 267.226562 L 23.945312 267.1875 L 23.996094 267.164062 L 24.042969 267.136719 L 24.089844 267.105469 L 24.136719 267.070312 L 24.179688 267.035156 L 24.222656 266.996094 L 24.261719 266.953125 L 24.300781 266.90625 L 24.335938 266.855469 L 24.375 266.800781 L 24.40625 266.746094 L 24.441406 266.6875 L 24.503906 266.554688 L 24.53125 266.484375 L 24.585938 266.328125 L 24.609375 266.246094 L 24.628906 266.160156 L 24.652344 266.070312 L 24.667969 265.976562 L 24.6875 265.878906 L 24.703125 265.777344 L 24.71875 265.671875 L 24.730469 265.5625 L 24.742188 265.445312 L 24.75 265.324219 L 24.753906 265.203125 L 24.761719 265.074219 L 24.761719 264.941406 Z M 24.765625 264.804688 "/>
<path style=" stroke:none;fill-rule:evenodd;fill:rgb(30.196078%,30.196078%,30.196078%);fill-opacity:1;" d="M 24.785156 130.421875 L 24.785156 131.792969 L 24.054688 131.792969 L 24.054688 130.421875 L 21.203125 130.421875 L 21.203125 129.820312 L 23.972656 125.738281 L 24.785156 125.738281 L 24.785156 129.8125 L 25.636719 129.8125 L 25.636719 130.421875 Z M 24.054688 126.609375 L 24.054688 126.617188 L 24.050781 126.621094 L 24.035156 126.652344 L 24.03125 126.664062 L 24.023438 126.671875 L 24.019531 126.683594 L 24.011719 126.695312 L 24.003906 126.710938 L 24 126.722656 L 23.984375 126.746094 L 23.96875 126.777344 L 23.960938 126.789062 L 23.945312 126.820312 L 23.933594 126.835938 L 23.910156 126.882812 L 23.898438 126.898438 L 23.882812 126.929688 L 23.871094 126.945312 L 23.855469 126.976562 L 23.84375 126.992188 L 23.820312 127.039062 L 23.8125 127.050781 L 23.804688 127.066406 L 23.773438 127.113281 L 23.765625 127.121094 L 22.214844 129.410156 L 22.210938 129.414062 L 22.203125 129.429688 L 22.195312 129.4375 L 22.1875 129.449219 L 22.183594 129.457031 L 22.175781 129.46875 L 22.167969 129.476562 L 22.144531 129.511719 L 22.136719 129.519531 L 22.105469 129.566406 L 22.09375 129.578125 L 22.054688 129.636719 L 22.042969 129.648438 L 22.019531 129.683594 L 22 129.703125 L 21.976562 129.738281 L 21.96875 129.746094 L 21.960938 129.757812 L 21.953125 129.765625 L 21.945312 129.777344 L 21.9375 129.785156 L 21.933594 129.792969 L 21.914062 129.8125 L 24.054688 129.8125 Z M 24.054688 126.609375 "/>
<path style="fill:none;stroke-width:1.066978;stroke-linecap:butt;stroke-linejoin:round;stroke:rgb(20%,20%,20%);stroke-opacity:1;stroke-miterlimit:10;" d="M 28.085938 400.847656 L 30.824219 400.847656 "/>
<path style="fill:none;stroke-width:1.066978;stroke-linecap:butt;stroke-linejoin:round;stroke:rgb(20%,20%,20%);stroke-opacity:1;stroke-miterlimit:10;" d="M 28.085938 264.804688 L 30.824219 264.804688 "/>
<path style="fill:none;stroke-width:1.066978;stroke-linecap:butt;stroke-linejoin:round;stroke:rgb(20%,20%,20%);stroke-opacity:1;stroke-miterlimit:10;" d="M 28.085938 128.765625 L 30.824219 128.765625 "/>
<path style="fill:none;stroke-width:1.066978;stroke-linecap:butt;stroke-linejoin:round;stroke:rgb(20%,20%,20%);stroke-opacity:1;stroke-miterlimit:10;" d="M 52.085938 475.859375 L 52.085938 473.117188 "/>
<path style="fill:none;stroke-width:1.066978;stroke-linecap:butt;stroke-linejoin:round;stroke:rgb(20%,20%,20%);stroke-opacity:1;stroke-miterlimit:10;" d="M 137.121094 475.859375 L 137.121094 473.117188 "/>
<path style="fill:none;stroke-width:1.066978;stroke-linecap:butt;stroke-linejoin:round;stroke:rgb(20%,20%,20%);stroke-opacity:1;stroke-miterlimit:10;" d="M 222.15625 475.859375 L 222.15625 473.117188 "/>
<path style="fill:none;stroke-width:1.066978;stroke-linecap:butt;stroke-linejoin:round;stroke:rgb(20%,20%,20%);stroke-opacity:1;stroke-miterlimit:10;" d="M 307.191406 475.859375 L 307.191406 473.117188 "/>
<path style="fill:none;stroke-width:1.066978;stroke-linecap:butt;stroke-linejoin:round;stroke:rgb(20%,20%,20%);stroke-opacity:1;stroke-miterlimit:10;" d="M 392.226562 475.859375 L 392.226562 473.117188 "/>
<path style="fill:none;stroke-width:1.066978;stroke-linecap:butt;stroke-linejoin:round;stroke:rgb(20%,20%,20%);stroke-opacity:1;stroke-miterlimit:10;" d="M 477.261719 475.859375 L 477.261719 473.117188 "/>
<path style=" stroke:none;fill-rule:evenodd;fill:rgb(30.196078%,30.196078%,30.196078%);fill-opacity:1;" d="M 48.5625 482.109375 L 48.5625 481.421875 L 50.710938 481.421875 L 50.710938 482.109375 Z M 48.5625 482.109375 "/>
<path style=" stroke:none;fill-rule:evenodd;fill:rgb(30.196078%,30.196078%,30.196078%);fill-opacity:1;" d="M 55.628906 482.132812 L 55.621094 482.3125 L 55.605469 482.484375 L 55.59375 482.566406 L 55.578125 482.652344 L 55.558594 482.730469 L 55.539062 482.8125 L 55.515625 482.890625 L 55.460938 483.039062 L 55.429688 483.113281 L 55.394531 483.183594 L 55.359375 483.25 L 55.320312 483.316406 L 55.277344 483.382812 L 55.230469 483.445312 L 55.183594 483.503906 L 55.132812 483.5625 L 55.082031 483.617188 L 55.027344 483.671875 L 54.96875 483.722656 L 54.84375 483.816406 L 54.777344 483.859375 L 54.710938 483.898438 L 54.5625 483.976562 L 54.488281 484.007812 L 54.40625 484.039062 L 54.242188 484.09375 L 54.15625 484.117188 L 54.066406 484.136719 L 53.976562 484.152344 L 53.882812 484.164062 L 53.785156 484.175781 L 53.683594 484.183594 L 53.480469 484.191406 L 53.292969 484.183594 L 53.203125 484.179688 L 53.117188 484.171875 L 53.03125 484.160156 L 52.949219 484.148438 L 52.871094 484.136719 L 52.792969 484.117188 L 52.644531 484.078125 L 52.574219 484.054688 L 52.507812 484.03125 L 52.445312 484.003906 L 52.378906 483.976562 L 52.203125 483.882812 L 52.152344 483.847656 L 52.097656 483.8125 L 52.046875 483.773438 L 52 483.734375 L 51.953125 483.691406 L 51.867188 483.605469 L 51.789062 483.511719 L 51.753906 483.464844 L 51.71875 483.414062 L 51.65625 483.3125 L 51.628906 483.261719 L 51.605469 483.207031 L 51.578125 483.152344 L 51.558594 483.097656 L 51.535156 483.042969 L 51.515625 482.984375 L 51.5 482.925781 L 51.484375 482.871094 L 51.46875 482.808594 L 51.457031 482.75 L 52.238281 482.660156 L 52.246094 482.695312 L 52.257812 482.730469 L 52.269531 482.761719 L 52.28125 482.796875 L 52.292969 482.828125 L 52.324219 482.898438 L 52.335938 482.929688 L 52.355469 482.960938 L 52.371094 482.996094 L 52.386719 483.027344 L 52.425781 483.089844 L 52.449219 483.117188 L 52.472656 483.148438 L 52.519531 483.203125 L 52.601562 483.285156 L 52.664062 483.332031 L 52.699219 483.355469 L 52.804688 483.414062 L 52.882812 483.453125 L 53.011719 483.5 L 53.105469 483.523438 L 53.15625 483.53125 L 53.210938 483.539062 L 53.261719 483.546875 L 53.320312 483.550781 L 53.375 483.554688 L 53.433594 483.558594 L 53.554688 483.558594 L 53.671875 483.550781 L 53.835938 483.527344 L 53.890625 483.515625 L 54.042969 483.46875 L 54.089844 483.449219 L 54.183594 483.402344 L 54.226562 483.378906 L 54.269531 483.351562 L 54.308594 483.324219 L 54.386719 483.261719 L 54.492188 483.15625 L 54.527344 483.117188 L 54.558594 483.078125 L 54.613281 482.992188 L 54.640625 482.945312 L 54.664062 482.902344 L 54.710938 482.800781 L 54.730469 482.75 L 54.746094 482.699219 L 54.761719 482.644531 L 54.777344 482.585938 L 54.800781 482.46875 L 54.816406 482.34375 L 54.820312 482.28125 L 54.824219 482.214844 L 54.824219 482.09375 L 54.816406 481.984375 L 54.792969 481.832031 L 54.78125 481.78125 L 54.765625 481.730469 L 54.734375 481.636719 L 54.714844 481.589844 L 54.695312 481.546875 L 54.625 481.417969 L 54.570312 481.339844 L 54.476562 481.234375 L 54.441406 481.199219 L 54.40625 481.167969 L 54.367188 481.136719 L 54.289062 481.082031 L 54.246094 481.054688 L 54.160156 481.007812 L 54.113281 480.988281 L 54.0625 480.96875 L 54.015625 480.949219 L 53.914062 480.917969 L 53.804688 480.894531 L 53.75 480.886719 L 53.691406 480.882812 L 53.632812 480.875 L 53.574219 480.875 L 53.511719 480.871094 L 53.476562 480.875 L 53.398438 480.875 L 53.222656 480.894531 L 53.191406 480.902344 L 53.15625 480.90625 L 53.03125 480.9375 L 53 480.949219 L 52.96875 480.957031 L 52.9375 480.96875 L 52.910156 480.980469 L 52.878906 480.988281 L 52.851562 481 L 52.824219 481.015625 L 52.769531 481.039062 L 52.746094 481.054688 L 52.71875 481.066406 L 52.695312 481.082031 L 52.667969 481.097656 L 52.574219 481.160156 L 52.554688 481.175781 L 52.53125 481.191406 L 52.511719 481.207031 L 52.488281 481.222656 L 52.46875 481.238281 L 52.449219 481.257812 L 52.425781 481.273438 L 52.40625 481.289062 L 52.386719 481.308594 L 51.632812 481.308594 L 51.832031 478.050781 L 55.273438 478.050781 L 55.273438 478.707031 L 52.539062 478.707031 L 52.421875 480.628906 L 52.507812 480.566406 L 52.554688 480.535156 L 52.605469 480.507812 L 52.652344 480.480469 L 52.707031 480.453125 L 52.761719 480.429688 L 52.816406 480.402344 L 52.875 480.378906 L 52.9375 480.355469 L 53 480.335938 L 53.132812 480.296875 L 53.203125 480.28125 L 53.351562 480.257812 L 53.425781 480.25 L 53.589844 480.242188 L 53.761719 480.242188 L 53.847656 480.246094 L 54.019531 480.261719 L 54.101562 480.277344 L 54.179688 480.289062 L 54.261719 480.308594 L 54.335938 480.328125 L 54.410156 480.351562 L 54.484375 480.378906 L 54.554688 480.40625 L 54.625 480.4375 L 54.757812 480.507812 L 54.820312 480.546875 L 54.878906 480.585938 L 54.9375 480.628906 L 54.992188 480.671875 L 55.046875 480.71875 L 55.148438 480.820312 L 55.242188 480.929688 L 55.285156 480.984375 L 55.324219 481.042969 L 55.363281 481.105469 L 55.398438 481.167969 L 55.429688 481.230469 L 55.460938 481.296875 L 55.515625 481.4375 L 55.539062 481.507812 L 55.578125 481.65625 L 55.59375 481.730469 L 55.605469 481.808594 L 55.613281 481.886719 L 55.621094 481.96875 Z M 55.628906 482.132812 "/>
<path style=" stroke:none;fill-rule:evenodd;fill:rgb(30.196078%,30.196078%,30.196078%);fill-opacity:1;" d="M 139.222656 481.074219 L 139.222656 481.246094 L 139.214844 481.414062 L 139.207031 481.574219 L 139.195312 481.730469 L 139.179688 481.878906 L 139.164062 482.023438 L 139.140625 482.160156 L 139.117188 482.292969 L 139.085938 482.421875 L 139.054688 482.542969 L 139.023438 482.660156 L 138.984375 482.773438 L 138.90625 482.984375 L 138.863281 483.082031 L 138.816406 483.175781 L 138.765625 483.265625 L 138.714844 483.351562 L 138.605469 483.507812 L 138.546875 483.578125 L 138.488281 483.644531 L 138.425781 483.707031 L 138.359375 483.765625 L 138.296875 483.820312 L 138.226562 483.871094 L 138.15625 483.917969 L 138.085938 483.960938 L 138.011719 483.996094 L 137.933594 484.03125 L 137.855469 484.0625 L 137.777344 484.089844 L 137.699219 484.113281 L 137.617188 484.132812 L 137.453125 484.164062 L 137.367188 484.175781 L 137.28125 484.183594 L 137.109375 484.191406 L 137.019531 484.1875 L 136.933594 484.183594 L 136.847656 484.175781 L 136.765625 484.164062 L 136.601562 484.132812 L 136.519531 484.113281 L 136.441406 484.089844 L 136.363281 484.0625 L 136.285156 484.03125 L 136.207031 483.996094 L 136.136719 483.960938 L 136.0625 483.917969 L 135.996094 483.871094 L 135.925781 483.820312 L 135.859375 483.765625 L 135.796875 483.707031 L 135.734375 483.644531 L 135.675781 483.578125 L 135.617188 483.507812 L 135.5625 483.429688 L 135.511719 483.351562 L 135.460938 483.265625 L 135.414062 483.179688 L 135.367188 483.085938 L 135.324219 482.988281 L 135.246094 482.777344 L 135.210938 482.664062 L 135.175781 482.546875 L 135.144531 482.425781 L 135.117188 482.296875 L 135.09375 482.164062 L 135.074219 482.027344 L 135.054688 481.882812 L 135.042969 481.730469 L 135.03125 481.574219 L 135.023438 481.414062 L 135.019531 481.246094 L 135.015625 481.074219 L 135.019531 480.894531 L 135.023438 480.722656 L 135.03125 480.554688 L 135.042969 480.394531 L 135.054688 480.238281 L 135.074219 480.089844 L 135.09375 479.949219 L 135.117188 479.8125 L 135.144531 479.683594 L 135.175781 479.5625 L 135.210938 479.445312 L 135.246094 479.332031 L 135.285156 479.222656 L 135.324219 479.121094 L 135.371094 479.023438 L 135.414062 478.929688 L 135.464844 478.839844 L 135.515625 478.757812 L 135.566406 478.679688 L 135.621094 478.605469 L 135.679688 478.535156 L 135.738281 478.46875 L 135.800781 478.410156 L 135.867188 478.351562 L 135.933594 478.300781 L 136 478.253906 L 136.070312 478.210938 L 136.140625 478.171875 L 136.214844 478.136719 L 136.292969 478.105469 L 136.371094 478.078125 L 136.449219 478.054688 L 136.53125 478.03125 L 136.613281 478.011719 L 136.695312 477.996094 L 136.867188 477.972656 L 136.957031 477.964844 L 137.042969 477.960938 L 137.222656 477.960938 L 137.304688 477.964844 L 137.390625 477.972656 L 137.554688 477.996094 L 137.636719 478.011719 L 137.714844 478.03125 L 137.871094 478.078125 L 137.949219 478.105469 L 138.023438 478.136719 L 138.097656 478.171875 L 138.167969 478.210938 L 138.238281 478.253906 L 138.304688 478.300781 L 138.371094 478.351562 L 138.496094 478.46875 L 138.554688 478.535156 L 138.613281 478.605469 L 138.667969 478.679688 L 138.722656 478.757812 L 138.773438 478.839844 L 138.820312 478.929688 L 138.867188 479.023438 L 138.910156 479.121094 L 138.953125 479.222656 L 138.988281 479.332031 L 139.027344 479.445312 L 139.058594 479.5625 L 139.089844 479.683594 L 139.117188 479.8125 L 139.144531 479.949219 L 139.164062 480.089844 L 139.183594 480.238281 L 139.199219 480.394531 L 139.207031 480.554688 L 139.21875 480.722656 L 139.222656 480.894531 Z M 138.4375 481.074219 L 138.4375 480.933594 L 138.433594 480.796875 L 138.429688 480.664062 L 138.421875 480.535156 L 138.414062 480.414062 L 138.40625 480.296875 L 138.394531 480.183594 L 138.382812 480.078125 L 138.367188 479.972656 L 138.351562 479.875 L 138.332031 479.78125 L 138.3125 479.691406 L 138.292969 479.605469 L 138.269531 479.523438 L 138.246094 479.445312 L 138.21875 479.371094 L 138.191406 479.300781 L 138.128906 479.167969 L 138.097656 479.109375 L 138.0625 479.054688 L 138.027344 479.003906 L 137.988281 478.953125 L 137.953125 478.910156 L 137.910156 478.867188 L 137.867188 478.828125 L 137.824219 478.792969 L 137.78125 478.761719 L 137.734375 478.730469 L 137.683594 478.707031 L 137.636719 478.683594 L 137.535156 478.644531 L 137.480469 478.628906 L 137.371094 478.605469 L 137.316406 478.597656 L 137.257812 478.589844 L 137.195312 478.589844 L 137.136719 478.585938 L 137.070312 478.589844 L 137.007812 478.589844 L 136.945312 478.597656 L 136.886719 478.605469 L 136.769531 478.628906 L 136.714844 478.644531 L 136.664062 478.664062 L 136.609375 478.683594 L 136.558594 478.707031 L 136.511719 478.734375 L 136.460938 478.761719 L 136.417969 478.792969 L 136.371094 478.832031 L 136.328125 478.871094 L 136.289062 478.910156 L 136.25 478.957031 L 136.171875 479.058594 L 136.136719 479.117188 L 136.105469 479.175781 L 136.074219 479.238281 L 136.046875 479.304688 L 136.015625 479.375 L 135.992188 479.449219 L 135.964844 479.527344 L 135.945312 479.609375 L 135.921875 479.695312 L 135.902344 479.785156 L 135.886719 479.878906 L 135.867188 479.976562 L 135.855469 480.082031 L 135.839844 480.1875 L 135.828125 480.300781 L 135.820312 480.417969 L 135.8125 480.539062 L 135.804688 480.664062 L 135.800781 480.796875 L 135.800781 481.34375 L 135.804688 481.472656 L 135.8125 481.597656 L 135.828125 481.832031 L 135.839844 481.941406 L 135.855469 482.046875 L 135.867188 482.148438 L 135.886719 482.246094 L 135.902344 482.339844 L 135.925781 482.429688 L 135.945312 482.515625 L 135.96875 482.601562 L 135.996094 482.679688 L 136.019531 482.753906 L 136.050781 482.824219 L 136.078125 482.894531 L 136.109375 482.957031 L 136.144531 483.015625 L 136.175781 483.074219 L 136.253906 483.175781 L 136.292969 483.222656 L 136.332031 483.265625 L 136.417969 483.34375 L 136.511719 483.40625 L 136.558594 483.433594 L 136.660156 483.480469 L 136.710938 483.496094 L 136.820312 483.527344 L 136.878906 483.539062 L 136.996094 483.554688 L 137.054688 483.558594 L 137.179688 483.558594 L 137.238281 483.554688 L 137.296875 483.546875 L 137.351562 483.539062 L 137.40625 483.527344 L 137.515625 483.496094 L 137.566406 483.480469 L 137.667969 483.433594 L 137.714844 483.40625 L 137.808594 483.34375 L 137.894531 483.265625 L 137.933594 483.222656 L 137.972656 483.175781 L 138.011719 483.125 L 138.046875 483.074219 L 138.082031 483.015625 L 138.113281 482.957031 L 138.144531 482.894531 L 138.175781 482.824219 L 138.203125 482.753906 L 138.230469 482.679688 L 138.257812 482.601562 L 138.304688 482.429688 L 138.324219 482.339844 L 138.34375 482.246094 L 138.359375 482.148438 L 138.375 482.046875 L 138.390625 481.941406 L 138.402344 481.832031 L 138.414062 481.714844 L 138.421875 481.597656 L 138.429688 481.472656 L 138.433594 481.34375 L 138.4375 481.210938 Z M 138.4375 481.074219 "/>
<path style=" stroke:none;fill-rule:evenodd;fill:rgb(30.196078%,30.196078%,30.196078%);fill-opacity:1;" d="M 224.234375 482.132812 L 224.226562 482.3125 L 224.210938 482.484375 L 224.199219 482.566406 L 224.183594 482.652344 L 224.164062 482.730469 L 224.144531 482.8125 L 224.121094 482.890625 L 224.066406 483.039062 L 224.035156 483.113281 L 224 483.183594 L 223.964844 483.25 L 223.925781 483.316406 L 223.882812 483.382812 L 223.835938 483.445312 L 223.789062 483.503906 L 223.738281 483.5625 L 223.6875 483.617188 L 223.632812 483.671875 L 223.574219 483.722656 L 223.449219 483.816406 L 223.382812 483.859375 L 223.316406 483.898438 L 223.167969 483.976562 L 223.09375 484.007812 L 223.011719 484.039062 L 222.847656 484.09375 L 222.761719 484.117188 L 222.671875 484.136719 L 222.582031 484.152344 L 222.488281 484.164062 L 222.390625 484.175781 L 222.289062 484.183594 L 222.085938 484.191406 L 221.898438 484.183594 L 221.808594 484.179688 L 221.722656 484.171875 L 221.636719 484.160156 L 221.554688 484.148438 L 221.476562 484.136719 L 221.398438 484.117188 L 221.25 484.078125 L 221.179688 484.054688 L 221.113281 484.03125 L 220.988281 483.976562 L 220.925781 483.945312 L 220.808594 483.882812 L 220.757812 483.847656 L 220.703125 483.8125 L 220.652344 483.773438 L 220.605469 483.734375 L 220.558594 483.691406 L 220.472656 483.605469 L 220.394531 483.511719 L 220.359375 483.464844 L 220.324219 483.414062 L 220.261719 483.3125 L 220.234375 483.261719 L 220.210938 483.207031 L 220.183594 483.152344 L 220.164062 483.097656 L 220.140625 483.042969 L 220.121094 482.984375 L 220.105469 482.925781 L 220.089844 482.871094 L 220.074219 482.808594 L 220.0625 482.75 L 220.84375 482.660156 L 220.851562 482.695312 L 220.863281 482.730469 L 220.875 482.761719 L 220.886719 482.796875 L 220.898438 482.828125 L 220.929688 482.898438 L 220.941406 482.929688 L 220.960938 482.960938 L 220.976562 482.996094 L 220.992188 483.027344 L 221.03125 483.089844 L 221.054688 483.117188 L 221.078125 483.148438 L 221.125 483.203125 L 221.207031 483.285156 L 221.269531 483.332031 L 221.304688 483.355469 L 221.410156 483.414062 L 221.488281 483.453125 L 221.617188 483.5 L 221.664062 483.511719 L 221.714844 483.523438 L 221.761719 483.53125 L 221.816406 483.539062 L 221.867188 483.546875 L 221.925781 483.550781 L 221.980469 483.554688 L 222.039062 483.558594 L 222.160156 483.558594 L 222.277344 483.550781 L 222.441406 483.527344 L 222.496094 483.515625 L 222.648438 483.46875 L 222.695312 483.449219 L 222.789062 483.402344 L 222.832031 483.378906 L 222.875 483.351562 L 222.914062 483.324219 L 222.992188 483.261719 L 223.097656 483.15625 L 223.132812 483.117188 L 223.164062 483.078125 L 223.21875 482.992188 L 223.246094 482.945312 L 223.269531 482.902344 L 223.316406 482.800781 L 223.335938 482.75 L 223.351562 482.699219 L 223.367188 482.644531 L 223.382812 482.585938 L 223.40625 482.46875 L 223.421875 482.34375 L 223.425781 482.28125 L 223.429688 482.214844 L 223.429688 482.09375 L 223.421875 481.984375 L 223.398438 481.832031 L 223.386719 481.78125 L 223.371094 481.730469 L 223.339844 481.636719 L 223.320312 481.589844 L 223.300781 481.546875 L 223.230469 481.417969 L 223.175781 481.339844 L 223.082031 481.234375 L 223.046875 481.199219 L 223.011719 481.167969 L 222.972656 481.136719 L 222.894531 481.082031 L 222.851562 481.054688 L 222.765625 481.007812 L 222.71875 480.988281 L 222.667969 480.96875 L 222.621094 480.949219 L 222.519531 480.917969 L 222.410156 480.894531 L 222.355469 480.886719 L 222.296875 480.882812 L 222.238281 480.875 L 222.179688 480.875 L 222.117188 480.871094 L 222.082031 480.875 L 222.003906 480.875 L 221.828125 480.894531 L 221.796875 480.902344 L 221.761719 480.90625 L 221.636719 480.9375 L 221.605469 480.949219 L 221.574219 480.957031 L 221.542969 480.96875 L 221.515625 480.980469 L 221.484375 480.988281 L 221.457031 481 L 221.429688 481.015625 L 221.375 481.039062 L 221.351562 481.054688 L 221.324219 481.066406 L 221.300781 481.082031 L 221.273438 481.097656 L 221.179688 481.160156 L 221.160156 481.175781 L 221.136719 481.191406 L 221.117188 481.207031 L 221.09375 481.222656 L 221.074219 481.238281 L 221.054688 481.257812 L 221.035156 481.273438 L 221.011719 481.289062 L 220.992188 481.308594 L 220.238281 481.308594 L 220.4375 478.050781 L 223.878906 478.050781 L 223.878906 478.707031 L 221.144531 478.707031 L 221.027344 480.628906 L 221.113281 480.566406 L 221.160156 480.535156 L 221.210938 480.507812 L 221.257812 480.480469 L 221.3125 480.453125 L 221.367188 480.429688 L 221.421875 480.402344 L 221.480469 480.378906 L 221.542969 480.355469 L 221.605469 480.335938 L 221.738281 480.296875 L 221.808594 480.28125 L 221.957031 480.257812 L 222.03125 480.25 L 222.195312 480.242188 L 222.367188 480.242188 L 222.453125 480.246094 L 222.625 480.261719 L 222.707031 480.277344 L 222.785156 480.289062 L 222.867188 480.308594 L 222.941406 480.328125 L 223.015625 480.351562 L 223.089844 480.378906 L 223.160156 480.40625 L 223.230469 480.4375 L 223.363281 480.507812 L 223.425781 480.546875 L 223.484375 480.585938 L 223.542969 480.628906 L 223.597656 480.671875 L 223.652344 480.71875 L 223.753906 480.820312 L 223.847656 480.929688 L 223.890625 480.984375 L 223.929688 481.042969 L 223.96875 481.105469 L 224.003906 481.167969 L 224.035156 481.230469 L 224.066406 481.296875 L 224.121094 481.4375 L 224.144531 481.507812 L 224.183594 481.65625 L 224.199219 481.730469 L 224.210938 481.808594 L 224.21875 481.886719 L 224.226562 481.96875 Z M 224.234375 482.132812 "/>
<path style=" stroke:none;fill-rule:evenodd;fill:rgb(30.196078%,30.196078%,30.196078%);fill-opacity:1;" d="M 302.96875 484.105469 L 302.96875 483.445312 L 304.507812 483.445312 L 304.507812 478.789062 L 303.144531 479.765625 L 303.144531 479.035156 L 304.574219 478.050781 L 305.289062 478.050781 L 305.289062 483.445312 L 306.761719 483.445312 L 306.761719 484.105469 Z M 302.96875 484.105469 "/>
<path style=" stroke:none;fill-rule:evenodd;fill:rgb(30.196078%,30.196078%,30.196078%);fill-opacity:1;" d="M 311.742188 481.074219 L 311.738281 481.246094 L 311.734375 481.414062 L 311.726562 481.574219 L 311.714844 481.730469 L 311.699219 481.878906 L 311.679688 482.023438 L 311.660156 482.160156 L 311.632812 482.292969 L 311.605469 482.421875 L 311.574219 482.542969 L 311.539062 482.660156 L 311.503906 482.773438 L 311.464844 482.878906 L 311.421875 482.984375 L 311.378906 483.082031 L 311.332031 483.175781 L 311.285156 483.265625 L 311.234375 483.351562 L 311.179688 483.429688 L 311.121094 483.507812 L 311.066406 483.578125 L 311.003906 483.644531 L 310.941406 483.707031 L 310.878906 483.765625 L 310.8125 483.820312 L 310.746094 483.871094 L 310.675781 483.917969 L 310.601562 483.960938 L 310.453125 484.03125 L 310.375 484.0625 L 310.296875 484.089844 L 310.214844 484.113281 L 310.132812 484.132812 L 309.96875 484.164062 L 309.886719 484.175781 L 309.800781 484.183594 L 309.628906 484.191406 L 309.539062 484.1875 L 309.453125 484.183594 L 309.367188 484.175781 L 309.28125 484.164062 L 309.117188 484.132812 L 309.035156 484.113281 L 308.957031 484.089844 L 308.878906 484.0625 L 308.800781 484.03125 L 308.652344 483.960938 L 308.582031 483.917969 L 308.511719 483.871094 L 308.445312 483.820312 L 308.378906 483.765625 L 308.316406 483.707031 L 308.253906 483.644531 L 308.195312 483.578125 L 308.136719 483.507812 L 308.027344 483.351562 L 307.980469 483.265625 L 307.929688 483.179688 L 307.886719 483.085938 L 307.84375 482.988281 L 307.800781 482.882812 L 307.761719 482.777344 L 307.726562 482.664062 L 307.695312 482.546875 L 307.664062 482.425781 L 307.636719 482.296875 L 307.613281 482.164062 L 307.59375 482.027344 L 307.574219 481.882812 L 307.558594 481.730469 L 307.550781 481.574219 L 307.542969 481.414062 L 307.535156 481.246094 L 307.535156 480.894531 L 307.542969 480.722656 L 307.550781 480.554688 L 307.558594 480.394531 L 307.574219 480.238281 L 307.59375 480.089844 L 307.613281 479.949219 L 307.636719 479.8125 L 307.664062 479.683594 L 307.695312 479.5625 L 307.726562 479.445312 L 307.765625 479.332031 L 307.800781 479.222656 L 307.84375 479.121094 L 307.886719 479.023438 L 307.933594 478.929688 L 307.980469 478.839844 L 308.03125 478.757812 L 308.085938 478.679688 L 308.140625 478.605469 L 308.199219 478.535156 L 308.257812 478.46875 L 308.382812 478.351562 L 308.449219 478.300781 L 308.519531 478.253906 L 308.589844 478.210938 L 308.660156 478.171875 L 308.734375 478.136719 L 308.8125 478.105469 L 308.890625 478.078125 L 308.96875 478.054688 L 309.050781 478.03125 L 309.132812 478.011719 L 309.214844 477.996094 L 309.386719 477.972656 L 309.472656 477.964844 L 309.5625 477.960938 L 309.738281 477.960938 L 309.824219 477.964844 L 309.910156 477.972656 L 310.074219 477.996094 L 310.152344 478.011719 L 310.234375 478.03125 L 310.390625 478.078125 L 310.464844 478.105469 L 310.539062 478.136719 L 310.613281 478.171875 L 310.6875 478.210938 L 310.753906 478.253906 L 310.824219 478.300781 L 310.886719 478.351562 L 310.953125 478.410156 L 311.015625 478.46875 L 311.074219 478.535156 L 311.132812 478.605469 L 311.1875 478.679688 L 311.238281 478.757812 L 311.289062 478.839844 L 311.339844 478.929688 L 311.382812 479.023438 L 311.429688 479.121094 L 311.46875 479.222656 L 311.507812 479.332031 L 311.542969 479.445312 L 311.578125 479.5625 L 311.609375 479.683594 L 311.636719 479.8125 L 311.660156 479.949219 L 311.683594 480.089844 L 311.699219 480.238281 L 311.714844 480.394531 L 311.726562 480.554688 L 311.734375 480.722656 L 311.738281 480.894531 Z M 310.953125 481.074219 L 310.953125 480.796875 L 310.945312 480.664062 L 310.941406 480.535156 L 310.933594 480.414062 L 310.925781 480.296875 L 310.914062 480.183594 L 310.898438 480.078125 L 310.886719 479.972656 L 310.867188 479.875 L 310.851562 479.78125 L 310.832031 479.691406 L 310.808594 479.605469 L 310.789062 479.523438 L 310.761719 479.445312 L 310.738281 479.371094 L 310.707031 479.300781 L 310.679688 479.234375 L 310.648438 479.167969 L 310.617188 479.109375 L 310.582031 479.054688 L 310.546875 479.003906 L 310.507812 478.953125 L 310.429688 478.867188 L 310.386719 478.828125 L 310.34375 478.792969 L 310.25 478.730469 L 310.203125 478.707031 L 310.152344 478.683594 L 310.105469 478.664062 L 310.050781 478.644531 L 310 478.628906 L 309.890625 478.605469 L 309.773438 478.589844 L 309.714844 478.589844 L 309.652344 478.585938 L 309.589844 478.589844 L 309.527344 478.589844 L 309.402344 478.605469 L 309.347656 478.617188 L 309.289062 478.628906 L 309.234375 478.644531 L 309.179688 478.664062 L 309.128906 478.683594 L 309.078125 478.707031 L 309.027344 478.734375 L 308.980469 478.761719 L 308.933594 478.792969 L 308.804688 478.910156 L 308.765625 478.957031 L 308.726562 479.007812 L 308.691406 479.058594 L 308.65625 479.117188 L 308.625 479.175781 L 308.59375 479.238281 L 308.5625 479.304688 L 308.535156 479.375 L 308.507812 479.449219 L 308.484375 479.527344 L 308.460938 479.609375 L 308.441406 479.695312 L 308.421875 479.785156 L 308.402344 479.878906 L 308.386719 479.976562 L 308.371094 480.082031 L 308.359375 480.1875 L 308.347656 480.300781 L 308.339844 480.417969 L 308.332031 480.539062 L 308.324219 480.664062 L 308.320312 480.796875 L 308.316406 480.933594 L 308.316406 481.210938 L 308.320312 481.34375 L 308.324219 481.472656 L 308.332031 481.597656 L 308.347656 481.832031 L 308.359375 481.941406 L 308.371094 482.046875 L 308.386719 482.148438 L 308.402344 482.246094 L 308.421875 482.339844 L 308.441406 482.429688 L 308.488281 482.601562 L 308.511719 482.679688 L 308.539062 482.753906 L 308.566406 482.824219 L 308.597656 482.894531 L 308.628906 482.957031 L 308.660156 483.015625 L 308.695312 483.074219 L 308.730469 483.125 L 308.769531 483.175781 L 308.808594 483.222656 L 308.851562 483.265625 L 308.9375 483.34375 L 308.980469 483.375 L 309.027344 483.40625 L 309.078125 483.433594 L 309.125 483.457031 L 309.179688 483.480469 L 309.230469 483.496094 L 309.339844 483.527344 L 309.394531 483.539062 L 309.511719 483.554688 L 309.574219 483.558594 L 309.695312 483.558594 L 309.753906 483.554688 L 309.871094 483.539062 L 309.925781 483.527344 L 310.035156 483.496094 L 310.085938 483.480469 L 310.1875 483.433594 L 310.234375 483.40625 L 310.28125 483.375 L 310.324219 483.34375 L 310.371094 483.304688 L 310.453125 483.222656 L 310.492188 483.175781 L 310.5625 483.074219 L 310.632812 482.957031 L 310.664062 482.894531 L 310.695312 482.824219 L 310.722656 482.753906 L 310.75 482.679688 L 310.773438 482.601562 L 310.800781 482.515625 L 310.820312 482.429688 L 310.839844 482.339844 L 310.859375 482.246094 L 310.878906 482.148438 L 310.894531 482.046875 L 310.910156 481.941406 L 310.921875 481.832031 L 310.929688 481.714844 L 310.941406 481.597656 L 310.945312 481.472656 L 310.953125 481.34375 Z M 310.953125 481.074219 "/>
<path style=" stroke:none;fill-rule:evenodd;fill:rgb(30.196078%,30.196078%,30.196078%);fill-opacity:1;" d="M 388.003906 484.105469 L 388.003906 483.445312 L 389.546875 483.445312 L 389.546875 478.789062 L 388.179688 479.765625 L 388.179688 479.035156 L 389.609375 478.050781 L 390.324219 478.050781 L 390.324219 483.445312 L 391.796875 483.445312 L 391.796875 484.105469 Z M 388.003906 484.105469 "/>
<path style=" stroke:none;fill-rule:evenodd;fill:rgb(30.196078%,30.196078%,30.196078%);fill-opacity:1;" d="M 396.75 482.132812 L 396.75 482.222656 L 396.746094 482.3125 L 396.730469 482.484375 L 396.714844 482.566406 L 396.703125 482.652344 L 396.683594 482.730469 L 396.664062 482.8125 L 396.640625 482.890625 L 396.585938 483.039062 L 396.554688 483.113281 L 396.519531 483.183594 L 396.402344 483.382812 L 396.355469 483.445312 L 396.308594 483.503906 L 396.257812 483.5625 L 396.207031 483.617188 L 396.148438 483.671875 L 396.089844 483.722656 L 396.03125 483.769531 L 395.96875 483.816406 L 395.902344 483.859375 L 395.761719 483.9375 L 395.6875 483.976562 L 395.53125 484.039062 L 395.367188 484.09375 L 395.277344 484.117188 L 395.191406 484.136719 L 395.097656 484.152344 L 395.003906 484.164062 L 394.90625 484.175781 L 394.808594 484.183594 L 394.707031 484.1875 L 394.601562 484.191406 L 394.507812 484.1875 L 394.328125 484.179688 L 394.238281 484.171875 L 393.992188 484.136719 L 393.917969 484.117188 L 393.839844 484.097656 L 393.769531 484.078125 L 393.699219 484.054688 L 393.632812 484.03125 L 393.566406 484.003906 L 393.503906 483.976562 L 393.445312 483.945312 L 393.382812 483.914062 L 393.328125 483.882812 L 393.273438 483.847656 L 393.222656 483.8125 L 393.171875 483.773438 L 393.125 483.734375 L 393.078125 483.691406 L 392.992188 483.605469 L 392.914062 483.511719 L 392.878906 483.464844 L 392.84375 483.414062 L 392.78125 483.3125 L 392.753906 483.261719 L 392.726562 483.207031 L 392.679688 483.097656 L 392.660156 483.042969 L 392.621094 482.925781 L 392.605469 482.871094 L 392.589844 482.808594 L 392.578125 482.75 L 393.359375 482.660156 L 393.382812 482.730469 L 393.390625 482.761719 L 393.40625 482.796875 L 393.417969 482.828125 L 393.429688 482.863281 L 393.445312 482.898438 L 393.476562 482.960938 L 393.492188 482.996094 L 393.550781 483.089844 L 393.570312 483.117188 L 393.59375 483.148438 L 393.617188 483.175781 L 393.644531 483.203125 L 393.667969 483.230469 L 393.699219 483.257812 L 393.726562 483.285156 L 393.820312 483.355469 L 393.890625 483.394531 L 394.007812 483.453125 L 394.046875 483.46875 L 394.089844 483.484375 L 394.136719 483.5 L 394.230469 483.523438 L 394.332031 483.539062 L 394.386719 483.546875 L 394.441406 483.550781 L 394.558594 483.558594 L 394.679688 483.558594 L 394.796875 483.550781 L 394.960938 483.527344 L 395.011719 483.515625 L 395.066406 483.5 L 395.117188 483.484375 L 395.164062 483.46875 L 395.214844 483.449219 L 395.261719 483.425781 L 395.304688 483.402344 L 395.351562 483.378906 L 395.390625 483.351562 L 395.433594 483.324219 L 395.511719 483.261719 L 395.617188 483.15625 L 395.679688 483.078125 L 395.710938 483.035156 L 395.738281 482.992188 L 395.765625 482.945312 L 395.789062 482.902344 L 395.8125 482.851562 L 395.871094 482.699219 L 395.886719 482.644531 L 395.902344 482.585938 L 395.914062 482.527344 L 395.921875 482.46875 L 395.933594 482.40625 L 395.9375 482.34375 L 395.945312 482.28125 L 395.945312 482.214844 L 395.949219 482.148438 L 395.945312 482.09375 L 395.945312 482.039062 L 395.9375 481.984375 L 395.933594 481.933594 L 395.925781 481.882812 L 395.890625 481.730469 L 395.875 481.683594 L 395.855469 481.636719 L 395.839844 481.589844 L 395.816406 481.546875 L 395.796875 481.503906 L 395.773438 481.460938 L 395.746094 481.417969 L 395.722656 481.378906 L 395.691406 481.339844 L 395.664062 481.304688 L 395.632812 481.269531 L 395.597656 481.234375 L 395.566406 481.199219 L 395.527344 481.167969 L 395.492188 481.136719 L 395.414062 481.082031 L 395.371094 481.054688 L 395.328125 481.03125 L 395.28125 481.007812 L 395.1875 480.96875 L 395.136719 480.949219 L 395.035156 480.917969 L 394.984375 480.90625 L 394.929688 480.894531 L 394.875 480.886719 L 394.816406 480.882812 L 394.757812 480.875 L 394.699219 480.875 L 394.636719 480.871094 L 394.597656 480.875 L 394.523438 480.875 L 394.488281 480.878906 L 394.449219 480.882812 L 394.414062 480.886719 L 394.382812 480.890625 L 394.347656 480.894531 L 394.3125 480.902344 L 394.28125 480.90625 L 394.246094 480.914062 L 394.152344 480.9375 L 394.121094 480.949219 L 394.09375 480.957031 L 394.03125 480.980469 L 394.003906 480.988281 L 393.976562 481 L 393.949219 481.015625 L 393.894531 481.039062 L 393.867188 481.054688 L 393.84375 481.066406 L 393.816406 481.082031 L 393.675781 481.175781 L 393.65625 481.191406 L 393.632812 481.207031 L 393.59375 481.238281 L 393.570312 481.257812 L 393.53125 481.289062 L 393.511719 481.308594 L 392.753906 481.308594 L 392.957031 478.050781 L 396.398438 478.050781 L 396.398438 478.707031 L 393.660156 478.707031 L 393.546875 480.628906 L 393.585938 480.597656 L 393.679688 480.535156 L 393.726562 480.507812 L 393.828125 480.453125 L 393.882812 480.429688 L 393.941406 480.402344 L 394 480.378906 L 394.0625 480.355469 L 394.125 480.335938 L 394.257812 480.296875 L 394.328125 480.28125 L 394.398438 480.269531 L 394.472656 480.257812 L 394.550781 480.25 L 394.628906 480.246094 L 394.710938 480.242188 L 394.886719 480.242188 L 394.972656 480.246094 L 395.058594 480.253906 L 395.140625 480.261719 L 395.222656 480.277344 L 395.304688 480.289062 L 395.460938 480.328125 L 395.535156 480.351562 L 395.609375 480.378906 L 395.679688 480.40625 L 395.746094 480.4375 L 395.816406 480.472656 L 395.878906 480.507812 L 396.003906 480.585938 L 396.0625 480.628906 L 396.117188 480.671875 L 396.171875 480.71875 L 396.273438 480.820312 L 396.320312 480.875 L 396.40625 480.984375 L 396.445312 481.042969 L 396.484375 481.105469 L 396.554688 481.230469 L 396.585938 481.296875 L 396.640625 481.4375 L 396.664062 481.507812 L 396.703125 481.65625 L 396.714844 481.730469 L 396.730469 481.808594 L 396.738281 481.886719 L 396.746094 481.96875 L 396.75 482.050781 Z M 396.75 482.132812 "/>
<path style=" stroke:none;fill-rule:evenodd;fill:rgb(30.196078%,30.196078%,30.196078%);fill-opacity:1;" d="M 472.808594 484.105469 L 472.808594 483.558594 L 472.949219 483.265625 L 473 483.175781 L 473.054688 483.085938 L 473.105469 483 L 473.164062 482.914062 L 473.28125 482.75 L 473.34375 482.671875 L 473.40625 482.597656 L 473.472656 482.523438 L 473.535156 482.449219 L 473.601562 482.375 L 473.667969 482.304688 L 473.804688 482.167969 L 473.871094 482.105469 L 473.941406 482.039062 L 474.007812 481.976562 L 474.078125 481.914062 L 474.148438 481.855469 L 474.21875 481.792969 L 474.285156 481.734375 L 474.355469 481.675781 L 474.421875 481.617188 L 474.492188 481.5625 L 474.558594 481.503906 L 474.628906 481.449219 L 474.695312 481.398438 L 474.765625 481.34375 L 474.832031 481.289062 L 474.898438 481.238281 L 475.023438 481.128906 L 475.085938 481.078125 L 475.144531 481.023438 L 475.203125 480.972656 L 475.257812 480.917969 L 475.316406 480.863281 L 475.371094 480.8125 L 475.421875 480.757812 L 475.46875 480.703125 L 475.519531 480.648438 L 475.5625 480.589844 L 475.648438 480.480469 L 475.6875 480.421875 L 475.757812 480.304688 L 475.820312 480.1875 L 475.84375 480.125 L 475.867188 480.058594 L 475.886719 479.992188 L 475.902344 479.925781 L 475.914062 479.859375 L 475.929688 479.71875 L 475.929688 479.59375 L 475.925781 479.542969 L 475.917969 479.449219 L 475.910156 479.402344 L 475.902344 479.359375 L 475.867188 479.230469 L 475.835938 479.152344 L 475.820312 479.117188 L 475.800781 479.078125 L 475.78125 479.046875 L 475.757812 479.011719 L 475.710938 478.949219 L 475.683594 478.917969 L 475.628906 478.863281 L 475.597656 478.835938 L 475.503906 478.765625 L 475.433594 478.726562 L 475.394531 478.710938 L 475.355469 478.691406 L 475.316406 478.679688 L 475.277344 478.664062 L 475.234375 478.652344 L 475.195312 478.640625 L 475.152344 478.628906 L 475.105469 478.621094 L 475.0625 478.613281 L 475.015625 478.605469 L 474.921875 478.597656 L 474.875 478.597656 L 474.824219 478.59375 L 474.777344 478.597656 L 474.734375 478.597656 L 474.6875 478.601562 L 474.644531 478.605469 L 474.601562 478.613281 L 474.554688 478.617188 L 474.511719 478.628906 L 474.46875 478.636719 L 474.429688 478.648438 L 474.386719 478.660156 L 474.347656 478.671875 L 474.269531 478.703125 L 474.230469 478.722656 L 474.125 478.78125 L 474.089844 478.804688 L 474.027344 478.851562 L 473.964844 478.90625 L 473.9375 478.9375 L 473.90625 478.964844 L 473.882812 479 L 473.855469 479.03125 L 473.785156 479.136719 L 473.726562 479.253906 L 473.710938 479.292969 L 473.695312 479.335938 L 473.683594 479.378906 L 473.648438 479.519531 L 473.640625 479.566406 L 473.636719 479.617188 L 472.84375 479.546875 L 472.851562 479.480469 L 472.863281 479.414062 L 472.878906 479.351562 L 472.890625 479.289062 L 472.910156 479.226562 L 472.929688 479.167969 L 472.949219 479.105469 L 472.996094 478.988281 L 473.023438 478.929688 L 473.085938 478.820312 L 473.15625 478.710938 L 473.195312 478.660156 L 473.234375 478.613281 L 473.277344 478.5625 L 473.320312 478.515625 L 473.414062 478.429688 L 473.46875 478.386719 L 473.519531 478.34375 L 473.574219 478.304688 L 473.632812 478.269531 L 473.691406 478.230469 L 473.75 478.199219 L 473.8125 478.167969 L 473.878906 478.136719 L 473.945312 478.109375 L 474.011719 478.085938 L 474.085938 478.058594 L 474.234375 478.019531 L 474.3125 478.003906 L 474.390625 477.992188 L 474.476562 477.980469 L 474.558594 477.972656 L 474.644531 477.964844 L 474.734375 477.960938 L 474.914062 477.960938 L 475.085938 477.96875 L 475.171875 477.976562 L 475.25 477.988281 L 475.332031 478 L 475.410156 478.011719 L 475.484375 478.027344 L 475.558594 478.046875 L 475.628906 478.066406 L 475.699219 478.089844 L 475.765625 478.113281 L 475.832031 478.140625 L 475.894531 478.167969 L 475.953125 478.199219 L 476.011719 478.234375 L 476.121094 478.304688 L 476.171875 478.34375 L 476.222656 478.386719 L 476.316406 478.472656 L 476.359375 478.519531 L 476.4375 478.621094 L 476.472656 478.671875 L 476.507812 478.726562 L 476.570312 478.84375 L 476.59375 478.90625 L 476.621094 478.96875 L 476.640625 479.03125 L 476.660156 479.097656 L 476.679688 479.167969 L 476.703125 479.308594 L 476.714844 479.382812 L 476.722656 479.539062 L 476.722656 479.679688 L 476.714844 479.796875 L 476.707031 479.855469 L 476.683594 479.972656 L 476.667969 480.03125 L 476.652344 480.085938 L 476.632812 480.144531 L 476.613281 480.199219 L 476.566406 480.308594 L 476.542969 480.359375 L 476.515625 480.414062 L 476.484375 480.464844 L 476.457031 480.519531 L 476.425781 480.570312 L 476.285156 480.773438 L 476.246094 480.820312 L 476.207031 480.871094 L 476.167969 480.917969 L 476.125 480.96875 L 476.039062 481.0625 L 475.851562 481.25 L 475.800781 481.296875 L 475.753906 481.34375 L 475.703125 481.386719 L 475.601562 481.480469 L 475.550781 481.523438 L 475.5 481.570312 L 475.449219 481.613281 L 475.398438 481.660156 L 475.34375 481.703125 L 475.292969 481.746094 L 475.238281 481.789062 L 475.1875 481.835938 L 475.132812 481.878906 L 475.082031 481.921875 L 475.027344 481.964844 L 474.976562 482.011719 L 474.867188 482.097656 L 474.816406 482.140625 L 474.761719 482.183594 L 474.558594 482.355469 L 474.511719 482.398438 L 474.460938 482.445312 L 474.320312 482.574219 L 474.1875 482.707031 L 474.144531 482.753906 L 474.105469 482.796875 L 474.0625 482.84375 L 474.023438 482.886719 L 473.984375 482.933594 L 473.949219 482.976562 L 473.878906 483.070312 L 473.84375 483.113281 L 473.8125 483.160156 L 473.730469 483.300781 L 473.707031 483.347656 L 473.683594 483.398438 L 473.660156 483.445312 L 476.820312 483.445312 L 476.820312 484.105469 Z M 472.808594 484.105469 "/>
<path style=" stroke:none;fill-rule:evenodd;fill:rgb(30.196078%,30.196078%,30.196078%);fill-opacity:1;" d="M 481.8125 481.074219 L 481.808594 481.246094 L 481.804688 481.414062 L 481.796875 481.574219 L 481.785156 481.730469 L 481.769531 481.878906 L 481.75 482.023438 L 481.730469 482.160156 L 481.703125 482.292969 L 481.675781 482.421875 L 481.644531 482.542969 L 481.609375 482.660156 L 481.574219 482.773438 L 481.535156 482.878906 L 481.492188 482.984375 L 481.449219 483.082031 L 481.402344 483.175781 L 481.355469 483.265625 L 481.304688 483.351562 L 481.25 483.429688 L 481.191406 483.507812 L 481.136719 483.578125 L 481.074219 483.644531 L 481.015625 483.707031 L 480.949219 483.765625 L 480.882812 483.820312 L 480.816406 483.871094 L 480.746094 483.917969 L 480.671875 483.960938 L 480.523438 484.03125 L 480.445312 484.0625 L 480.367188 484.089844 L 480.285156 484.113281 L 480.207031 484.132812 L 480.125 484.148438 L 480.039062 484.164062 L 479.957031 484.175781 L 479.871094 484.183594 L 479.699219 484.191406 L 479.609375 484.1875 L 479.523438 484.183594 L 479.4375 484.175781 L 479.355469 484.164062 L 479.269531 484.148438 L 479.1875 484.132812 L 479.109375 484.113281 L 479.027344 484.089844 L 478.949219 484.0625 L 478.871094 484.03125 L 478.722656 483.960938 L 478.652344 483.917969 L 478.582031 483.871094 L 478.515625 483.820312 L 478.449219 483.765625 L 478.386719 483.707031 L 478.324219 483.644531 L 478.265625 483.578125 L 478.207031 483.507812 L 478.152344 483.429688 L 478.101562 483.351562 L 478.050781 483.265625 L 478.003906 483.179688 L 477.957031 483.085938 L 477.914062 482.988281 L 477.871094 482.882812 L 477.835938 482.777344 L 477.796875 482.664062 L 477.765625 482.546875 L 477.734375 482.425781 L 477.707031 482.296875 L 477.683594 482.164062 L 477.664062 482.027344 L 477.644531 481.882812 L 477.632812 481.730469 L 477.621094 481.574219 L 477.613281 481.414062 L 477.605469 481.246094 L 477.605469 480.894531 L 477.613281 480.722656 L 477.621094 480.554688 L 477.632812 480.394531 L 477.644531 480.238281 L 477.664062 480.089844 L 477.683594 479.949219 L 477.707031 479.8125 L 477.734375 479.683594 L 477.765625 479.5625 L 477.796875 479.445312 L 477.835938 479.332031 L 477.875 479.222656 L 477.914062 479.121094 L 477.957031 479.023438 L 478.003906 478.929688 L 478.050781 478.839844 L 478.101562 478.757812 L 478.15625 478.679688 L 478.210938 478.605469 L 478.269531 478.535156 L 478.328125 478.46875 L 478.453125 478.351562 L 478.519531 478.300781 L 478.589844 478.253906 L 478.660156 478.210938 L 478.730469 478.171875 L 478.804688 478.136719 L 478.882812 478.105469 L 478.960938 478.078125 L 479.039062 478.054688 L 479.121094 478.03125 L 479.203125 478.011719 L 479.285156 477.996094 L 479.457031 477.972656 L 479.542969 477.964844 L 479.632812 477.960938 L 479.808594 477.960938 L 479.894531 477.964844 L 479.980469 477.972656 L 480.144531 477.996094 L 480.222656 478.011719 L 480.304688 478.03125 L 480.460938 478.078125 L 480.535156 478.105469 L 480.613281 478.136719 L 480.683594 478.171875 L 480.757812 478.210938 L 480.824219 478.253906 L 480.894531 478.300781 L 480.960938 478.351562 L 481.085938 478.46875 L 481.144531 478.535156 L 481.203125 478.605469 L 481.257812 478.679688 L 481.3125 478.757812 L 481.359375 478.839844 L 481.410156 478.929688 L 481.457031 479.023438 L 481.5 479.121094 L 481.539062 479.222656 L 481.578125 479.332031 L 481.613281 479.445312 L 481.648438 479.5625 L 481.679688 479.683594 L 481.707031 479.8125 L 481.730469 479.949219 L 481.753906 480.089844 L 481.769531 480.238281 L 481.785156 480.394531 L 481.796875 480.554688 L 481.804688 480.722656 L 481.808594 480.894531 Z M 481.027344 481.074219 L 481.023438 480.933594 L 481.023438 480.796875 L 481.019531 480.664062 L 481.011719 480.535156 L 481.003906 480.414062 L 480.996094 480.296875 L 480.984375 480.183594 L 480.972656 480.078125 L 480.957031 479.972656 L 480.941406 479.875 L 480.921875 479.78125 L 480.902344 479.691406 L 480.882812 479.605469 L 480.859375 479.523438 L 480.832031 479.445312 L 480.808594 479.371094 L 480.78125 479.300781 L 480.71875 479.167969 L 480.6875 479.109375 L 480.652344 479.054688 L 480.617188 479.003906 L 480.578125 478.953125 L 480.5 478.867188 L 480.457031 478.828125 L 480.414062 478.792969 L 480.320312 478.730469 L 480.226562 478.683594 L 480.125 478.644531 L 480.070312 478.628906 L 479.960938 478.605469 L 479.84375 478.589844 L 479.785156 478.589844 L 479.722656 478.585938 L 479.660156 478.589844 L 479.597656 478.589844 L 479.535156 478.597656 L 479.476562 478.605469 L 479.359375 478.628906 L 479.304688 478.644531 L 479.25 478.664062 L 479.199219 478.683594 L 479.148438 478.707031 L 479.097656 478.734375 L 479.050781 478.761719 L 479.003906 478.792969 L 478.875 478.910156 L 478.835938 478.957031 L 478.796875 479.007812 L 478.761719 479.058594 L 478.726562 479.117188 L 478.695312 479.175781 L 478.664062 479.238281 L 478.632812 479.304688 L 478.605469 479.375 L 478.578125 479.449219 L 478.554688 479.527344 L 478.53125 479.609375 L 478.511719 479.695312 L 478.492188 479.785156 L 478.472656 479.878906 L 478.457031 479.976562 L 478.441406 480.082031 L 478.429688 480.1875 L 478.417969 480.300781 L 478.410156 480.417969 L 478.402344 480.539062 L 478.394531 480.664062 L 478.390625 480.796875 L 478.386719 480.933594 L 478.386719 481.210938 L 478.390625 481.34375 L 478.394531 481.472656 L 478.402344 481.597656 L 478.417969 481.832031 L 478.429688 481.941406 L 478.441406 482.046875 L 478.457031 482.148438 L 478.472656 482.246094 L 478.492188 482.339844 L 478.511719 482.429688 L 478.558594 482.601562 L 478.582031 482.679688 L 478.609375 482.753906 L 478.636719 482.824219 L 478.667969 482.894531 L 478.699219 482.957031 L 478.730469 483.015625 L 478.765625 483.074219 L 478.804688 483.125 L 478.839844 483.175781 L 478.878906 483.222656 L 478.921875 483.265625 L 479.007812 483.34375 L 479.101562 483.40625 L 479.148438 483.433594 L 479.25 483.480469 L 479.300781 483.496094 L 479.410156 483.527344 L 479.464844 483.539062 L 479.582031 483.554688 L 479.644531 483.558594 L 479.765625 483.558594 L 479.828125 483.554688 L 479.882812 483.546875 L 479.941406 483.539062 L 479.996094 483.527344 L 480.105469 483.496094 L 480.15625 483.480469 L 480.257812 483.433594 L 480.304688 483.40625 L 480.398438 483.34375 L 480.441406 483.304688 L 480.523438 483.222656 L 480.5625 483.175781 L 480.597656 483.125 L 480.636719 483.074219 L 480.667969 483.015625 L 480.703125 482.957031 L 480.734375 482.894531 L 480.765625 482.824219 L 480.792969 482.753906 L 480.820312 482.679688 L 480.847656 482.601562 L 480.871094 482.515625 L 480.890625 482.429688 L 480.914062 482.339844 L 480.929688 482.246094 L 480.949219 482.148438 L 480.964844 482.046875 L 480.980469 481.941406 L 480.992188 481.832031 L 481.003906 481.714844 L 481.011719 481.597656 L 481.015625 481.472656 L 481.023438 481.34375 L 481.023438 481.210938 Z M 481.027344 481.074219 "/>
<path style=" stroke:none;fill-rule:evenodd;fill:rgb(0%,0%,0%);fill-opacity:1;" d="M 266.226562 496.238281 L 264.664062 493.851562 L 263.089844 496.238281 L 262.046875 496.238281 L 264.113281 493.25 L 262.144531 490.425781 L 263.210938 490.425781 L 264.664062 492.6875 L 266.101562 490.425781 L 267.179688 490.425781 L 265.210938 493.242188 L 267.304688 496.238281 Z M 266.226562 496.238281 "/>
<path style=" stroke:none;fill-rule:evenodd;fill:rgb(0%,0%,0%);fill-opacity:1;" d="M 13.046875 248.648438 L 5.078125 248.648438 L 5.078125 247.679688 L 13.046875 247.679688 Z M 13.046875 248.648438 "/>
<path style=" stroke:none;fill-rule:evenodd;fill:rgb(0%,0%,0%);fill-opacity:1;" d="M 10.136719 241.289062 L 10.433594 241.296875 L 10.714844 241.316406 L 10.980469 241.347656 L 11.230469 241.394531 L 11.46875 241.457031 L 11.6875 241.53125 L 11.890625 241.617188 L 12.078125 241.71875 L 12.25 241.832031 L 12.40625 241.960938 L 12.550781 242.101562 L 12.675781 242.253906 L 12.789062 242.417969 L 12.886719 242.59375 L 12.96875 242.785156 L 13.035156 242.984375 L 13.085938 243.199219 L 13.125 243.421875 L 13.148438 243.660156 L 13.15625 243.910156 L 13.152344 244.03125 L 13.148438 244.148438 L 13.125 244.375 L 13.109375 244.484375 L 13.089844 244.59375 L 13.066406 244.695312 L 13.039062 244.796875 L 13.007812 244.898438 L 12.972656 244.996094 L 12.933594 245.089844 L 12.890625 245.179688 L 12.84375 245.269531 L 12.796875 245.355469 L 12.742188 245.4375 L 12.683594 245.515625 L 12.621094 245.59375 L 12.554688 245.667969 L 12.488281 245.738281 L 12.414062 245.804688 L 12.335938 245.871094 L 12.171875 245.988281 L 11.992188 246.097656 L 11.796875 246.191406 L 11.691406 246.234375 L 11.585938 246.273438 L 11.472656 246.3125 L 11.359375 246.34375 L 11.238281 246.371094 L 11.113281 246.398438 L 10.984375 246.421875 L 10.855469 246.441406 L 10.71875 246.457031 L 10.578125 246.46875 L 10.433594 246.476562 L 10.289062 246.480469 L 10.136719 246.484375 L 9.566406 246.457031 L 9.054688 246.378906 L 8.601562 246.25 L 8.210938 246.066406 L 7.878906 245.832031 L 7.609375 245.542969 L 7.398438 245.207031 L 7.25 244.816406 L 7.160156 244.371094 L 7.128906 243.878906 L 7.128906 243.746094 L 7.136719 243.613281 L 7.144531 243.488281 L 7.175781 243.246094 L 7.195312 243.132812 L 7.21875 243.023438 L 7.25 242.914062 L 7.28125 242.8125 L 7.316406 242.710938 L 7.355469 242.613281 L 7.398438 242.523438 L 7.445312 242.433594 L 7.496094 242.347656 L 7.550781 242.265625 L 7.609375 242.183594 L 7.671875 242.109375 L 7.738281 242.039062 L 7.808594 241.96875 L 7.878906 241.90625 L 7.957031 241.84375 L 8.039062 241.785156 L 8.121094 241.730469 L 8.210938 241.679688 L 8.398438 241.585938 L 8.5 241.542969 L 8.601562 241.507812 L 8.820312 241.4375 L 8.933594 241.410156 L 9.175781 241.363281 L 9.300781 241.34375 L 9.429688 241.328125 L 9.566406 241.3125 L 9.703125 241.300781 L 9.84375 241.292969 L 9.988281 241.289062 Z M 10.136719 242.304688 L 10.003906 242.304688 L 9.875 242.308594 L 9.75 242.3125 L 9.632812 242.320312 L 9.519531 242.332031 L 9.410156 242.34375 L 9.304688 242.355469 L 9.203125 242.371094 L 9.109375 242.390625 L 9.019531 242.410156 L 8.933594 242.433594 L 8.769531 242.480469 L 8.695312 242.507812 L 8.621094 242.539062 L 8.554688 242.570312 L 8.488281 242.605469 L 8.429688 242.640625 L 8.371094 242.679688 L 8.316406 242.71875 L 8.265625 242.757812 L 8.214844 242.800781 L 8.171875 242.84375 L 8.128906 242.890625 L 8.09375 242.9375 L 8.058594 242.988281 L 8.027344 243.039062 L 7.996094 243.09375 L 7.972656 243.148438 L 7.949219 243.207031 L 7.910156 243.324219 L 7.894531 243.386719 L 7.882812 243.449219 L 7.859375 243.582031 L 7.851562 243.648438 L 7.84375 243.789062 L 7.84375 243.933594 L 7.847656 244.007812 L 7.851562 244.078125 L 7.859375 244.148438 L 7.882812 244.28125 L 7.898438 244.347656 L 7.914062 244.410156 L 7.933594 244.472656 L 8.003906 244.648438 L 8.035156 244.703125 L 8.066406 244.753906 L 8.101562 244.808594 L 8.140625 244.855469 L 8.183594 244.90625 L 8.230469 244.949219 L 8.28125 244.996094 L 8.332031 245.039062 L 8.386719 245.078125 L 8.503906 245.15625 L 8.570312 245.191406 L 8.710938 245.253906 L 8.785156 245.285156 L 8.867188 245.3125 L 8.949219 245.335938 L 9.035156 245.359375 L 9.125 245.378906 L 9.21875 245.398438 L 9.421875 245.429688 L 9.53125 245.441406 L 9.757812 245.457031 L 9.878906 245.464844 L 10.007812 245.464844 L 10.136719 245.46875 L 10.269531 245.464844 L 10.398438 245.460938 L 10.519531 245.457031 L 10.640625 245.449219 L 10.753906 245.4375 L 10.863281 245.425781 L 10.96875 245.410156 L 11.070312 245.390625 L 11.167969 245.371094 L 11.257812 245.347656 L 11.34375 245.324219 L 11.429688 245.296875 L 11.507812 245.269531 L 11.582031 245.242188 L 11.65625 245.210938 L 11.789062 245.140625 L 11.851562 245.105469 L 11.960938 245.027344 L 12.0625 244.941406 L 12.148438 244.847656 L 12.1875 244.800781 L 12.222656 244.75 L 12.285156 244.648438 L 12.332031 244.539062 L 12.371094 244.421875 L 12.402344 244.304688 L 12.414062 244.242188 L 12.429688 244.117188 L 12.4375 244.050781 L 12.4375 243.988281 L 12.441406 243.921875 L 12.4375 243.847656 L 12.4375 243.773438 L 12.429688 243.703125 L 12.425781 243.636719 L 12.414062 243.566406 L 12.402344 243.5 L 12.390625 243.4375 L 12.375 243.371094 L 12.359375 243.308594 L 12.339844 243.25 L 12.316406 243.191406 L 12.289062 243.132812 L 12.261719 243.078125 L 12.226562 243.023438 L 12.191406 242.972656 L 12.113281 242.871094 L 12.066406 242.828125 L 12.019531 242.78125 L 11.96875 242.738281 L 11.914062 242.699219 L 11.855469 242.660156 L 11.792969 242.621094 L 11.726562 242.585938 L 11.660156 242.554688 L 11.511719 242.492188 L 11.429688 242.464844 L 11.347656 242.441406 L 11.167969 242.394531 L 11.070312 242.375 L 10.96875 242.359375 L 10.863281 242.34375 L 10.753906 242.332031 L 10.640625 242.320312 L 10.519531 242.3125 L 10.398438 242.308594 L 10.269531 242.304688 Z M 10.136719 242.304688 "/>
<path style=" stroke:none;fill-rule:evenodd;fill:rgb(0%,0%,0%);fill-opacity:1;" d="M 15.328125 237.882812 L 15.328125 237.980469 L 15.324219 238.078125 L 15.320312 238.171875 L 15.3125 238.265625 L 15.304688 238.355469 L 15.28125 238.527344 L 15.265625 238.609375 L 15.246094 238.691406 L 15.207031 238.847656 L 15.183594 238.921875 L 15.160156 238.992188 L 15.132812 239.0625 L 15.101562 239.128906 L 15.074219 239.191406 L 15.039062 239.257812 L 15.007812 239.316406 L 14.96875 239.375 L 14.933594 239.429688 L 14.894531 239.484375 L 14.855469 239.535156 L 14.8125 239.585938 L 14.726562 239.679688 L 14.632812 239.765625 L 14.582031 239.804688 L 14.535156 239.839844 L 14.480469 239.875 L 14.429688 239.910156 L 14.375 239.941406 L 14.316406 239.96875 L 14.261719 240 L 14.085938 240.070312 L 14.023438 240.089844 L 13.960938 240.105469 L 13.894531 240.125 L 13.757812 239.152344 L 13.835938 239.128906 L 13.910156 239.101562 L 13.980469 239.074219 L 14.113281 238.996094 L 14.171875 238.953125 L 14.226562 238.902344 L 14.28125 238.847656 L 14.328125 238.789062 L 14.375 238.726562 L 14.453125 238.585938 L 14.515625 238.429688 L 14.539062 238.34375 L 14.558594 238.253906 L 14.574219 238.160156 L 14.585938 238.0625 L 14.59375 237.960938 L 14.59375 237.792969 L 14.589844 237.726562 L 14.585938 237.664062 L 14.578125 237.605469 L 14.570312 237.542969 L 14.5625 237.484375 L 14.550781 237.425781 L 14.503906 237.261719 L 14.484375 237.207031 L 14.4375 237.105469 L 14.382812 237.011719 L 14.320312 236.925781 L 14.285156 236.882812 L 14.167969 236.765625 L 14.121094 236.730469 L 14.078125 236.699219 L 13.976562 236.636719 L 13.925781 236.609375 L 13.867188 236.582031 L 13.75 236.535156 L 13.6875 236.515625 L 13.621094 236.496094 L 13.550781 236.476562 L 13.480469 236.460938 L 13.40625 236.449219 L 13.328125 236.4375 L 13.25 236.429688 L 13.167969 236.421875 L 13.082031 236.414062 L 12.992188 236.414062 L 12.902344 236.410156 L 11.96875 236.410156 L 11.96875 236.421875 L 12.140625 236.515625 L 12.269531 236.597656 L 12.308594 236.628906 L 12.351562 236.660156 L 12.429688 236.722656 L 12.507812 236.792969 L 12.542969 236.828125 L 12.648438 236.945312 L 12.683594 236.988281 L 12.714844 237.03125 L 12.777344 237.125 L 12.804688 237.171875 L 12.835938 237.21875 L 12.863281 237.269531 L 12.886719 237.324219 L 12.914062 237.375 L 12.9375 237.429688 L 12.957031 237.488281 L 12.980469 237.542969 L 13 237.605469 L 13.015625 237.664062 L 13.03125 237.726562 L 13.046875 237.792969 L 13.058594 237.859375 L 13.066406 237.925781 L 13.082031 238.066406 L 13.089844 238.214844 L 13.089844 238.402344 L 13.082031 238.507812 L 13.074219 238.609375 L 13.0625 238.710938 L 13.023438 238.898438 L 13 238.988281 L 12.972656 239.078125 L 12.941406 239.160156 L 12.90625 239.242188 L 12.867188 239.320312 L 12.824219 239.394531 L 12.777344 239.464844 L 12.726562 239.535156 L 12.675781 239.601562 L 12.617188 239.664062 L 12.554688 239.722656 L 12.488281 239.78125 L 12.421875 239.835938 L 12.347656 239.886719 L 12.273438 239.933594 L 12.195312 239.980469 L 12.109375 240.023438 L 12.023438 240.0625 L 11.933594 240.101562 L 11.839844 240.136719 L 11.644531 240.199219 L 11.539062 240.226562 L 11.429688 240.253906 L 11.203125 240.292969 L 10.960938 240.324219 L 10.835938 240.335938 L 10.703125 240.347656 L 10.570312 240.355469 L 10.296875 240.363281 L 10.015625 240.363281 L 9.878906 240.359375 L 9.746094 240.355469 L 9.617188 240.347656 L 9.488281 240.335938 L 9.363281 240.324219 L 9.242188 240.308594 L 9.125 240.292969 L 9.007812 240.273438 L 8.894531 240.253906 L 8.785156 240.226562 L 8.679688 240.199219 L 8.574219 240.167969 L 8.476562 240.136719 L 8.378906 240.097656 L 8.285156 240.058594 L 8.199219 240.019531 L 8.027344 239.925781 L 7.949219 239.875 L 7.800781 239.765625 L 7.730469 239.703125 L 7.667969 239.640625 L 7.605469 239.574219 L 7.546875 239.507812 L 7.492188 239.433594 L 7.441406 239.359375 L 7.398438 239.28125 L 7.355469 239.199219 L 7.3125 239.113281 L 7.277344 239.023438 L 7.246094 238.933594 L 7.21875 238.835938 L 7.195312 238.734375 L 7.179688 238.632812 L 7.164062 238.527344 L 7.152344 238.414062 L 7.148438 238.300781 L 7.144531 238.183594 L 7.148438 238.0625 L 7.15625 237.945312 L 7.171875 237.828125 L 7.191406 237.71875 L 7.214844 237.609375 L 7.246094 237.503906 L 7.285156 237.402344 L 7.328125 237.300781 L 7.375 237.207031 L 7.429688 237.117188 L 7.488281 237.027344 L 7.550781 236.941406 L 7.617188 236.859375 L 7.691406 236.785156 L 7.769531 236.710938 L 7.851562 236.644531 L 7.9375 236.578125 L 8.03125 236.519531 L 8.128906 236.464844 L 8.230469 236.410156 L 8.230469 236.402344 L 8.144531 236.402344 L 8.117188 236.398438 L 7.960938 236.398438 L 7.929688 236.394531 L 7.894531 236.394531 L 7.863281 236.390625 L 7.832031 236.390625 L 7.800781 236.386719 L 7.738281 236.386719 L 7.707031 236.382812 L 7.675781 236.382812 L 7.644531 236.378906 L 7.585938 236.378906 L 7.558594 236.375 L 7.53125 236.375 L 7.476562 236.367188 L 7.453125 236.367188 L 7.425781 236.363281 L 7.402344 236.363281 L 7.382812 236.359375 L 7.359375 236.359375 L 7.339844 236.355469 L 7.320312 236.355469 L 7.289062 236.347656 L 7.273438 236.347656 L 7.261719 236.34375 L 7.253906 236.34375 L 7.246094 236.339844 L 7.238281 236.339844 L 7.234375 236.335938 L 7.234375 235.417969 L 7.246094 235.417969 L 7.257812 235.421875 L 7.300781 235.421875 L 7.320312 235.425781 L 7.359375 235.425781 L 7.378906 235.429688 L 7.449219 235.429688 L 7.472656 235.433594 L 7.554688 235.433594 L 7.582031 235.4375 L 7.644531 235.4375 L 7.675781 235.441406 L 7.777344 235.441406 L 7.8125 235.445312 L 7.921875 235.445312 L 7.957031 235.449219 L 12.878906 235.449219 L 13.117188 235.457031 L 13.34375 235.472656 L 13.558594 235.503906 L 13.757812 235.546875 L 13.949219 235.601562 L 14.125 235.667969 L 14.289062 235.746094 L 14.441406 235.835938 L 14.582031 235.9375 L 14.710938 236.050781 L 14.828125 236.175781 L 14.933594 236.316406 L 15.027344 236.46875 L 15.109375 236.632812 L 15.175781 236.808594 L 15.230469 236.996094 L 15.273438 237.199219 L 15.304688 237.414062 L 15.324219 237.644531 Z M 10.140625 236.410156 L 9.90625 236.417969 L 9.792969 236.425781 L 9.683594 236.433594 L 9.578125 236.445312 L 9.476562 236.460938 L 9.378906 236.476562 L 9.285156 236.496094 L 9.191406 236.519531 L 9.019531 236.574219 L 8.9375 236.601562 L 8.78125 236.664062 L 8.710938 236.695312 L 8.640625 236.730469 L 8.574219 236.769531 L 8.511719 236.808594 L 8.453125 236.847656 L 8.394531 236.890625 L 8.292969 236.976562 L 8.199219 237.070312 L 8.082031 237.222656 L 8.050781 237.273438 L 8.019531 237.328125 L 7.992188 237.382812 L 7.96875 237.4375 L 7.945312 237.496094 L 7.925781 237.550781 L 7.894531 237.660156 L 7.886719 237.71875 L 7.875 237.777344 L 7.871094 237.832031 L 7.863281 237.949219 L 7.867188 238.019531 L 7.871094 238.09375 L 7.875 238.160156 L 7.886719 238.226562 L 7.894531 238.292969 L 7.925781 238.417969 L 7.945312 238.476562 L 7.992188 238.585938 L 8.019531 238.640625 L 8.050781 238.6875 L 8.085938 238.738281 L 8.121094 238.785156 L 8.160156 238.828125 L 8.246094 238.914062 L 8.347656 238.992188 L 8.457031 239.0625 L 8.515625 239.09375 L 8.582031 239.121094 L 8.644531 239.152344 L 8.714844 239.179688 L 8.863281 239.226562 L 8.941406 239.246094 L 9.023438 239.265625 L 9.109375 239.285156 L 9.199219 239.300781 L 9.289062 239.3125 L 9.382812 239.328125 L 9.480469 239.335938 L 9.582031 239.347656 L 9.6875 239.351562 L 9.796875 239.359375 L 9.90625 239.363281 L 10.023438 239.363281 L 10.140625 239.367188 L 10.265625 239.363281 L 10.386719 239.363281 L 10.5 239.359375 L 10.613281 239.351562 L 10.71875 239.347656 L 10.824219 239.335938 L 10.925781 239.328125 L 11.019531 239.3125 L 11.113281 239.300781 L 11.199219 239.285156 L 11.363281 239.246094 L 11.441406 239.226562 L 11.582031 239.179688 L 11.652344 239.152344 L 11.714844 239.121094 L 11.777344 239.09375 L 11.832031 239.0625 L 11.886719 239.027344 L 11.988281 238.957031 L 12.03125 238.917969 L 12.074219 238.875 L 12.113281 238.832031 L 12.148438 238.789062 L 12.183594 238.742188 L 12.210938 238.695312 L 12.238281 238.644531 L 12.261719 238.59375 L 12.285156 238.539062 L 12.304688 238.484375 L 12.335938 238.367188 L 12.347656 238.304688 L 12.359375 238.238281 L 12.367188 238.175781 L 12.375 238.035156 L 12.375 237.90625 L 12.371094 237.847656 L 12.363281 237.792969 L 12.355469 237.734375 L 12.34375 237.679688 L 12.332031 237.621094 L 12.316406 237.566406 L 12.277344 237.457031 L 12.253906 237.398438 L 12.226562 237.34375 L 12.195312 237.289062 L 12.164062 237.238281 L 12.09375 237.136719 L 12.050781 237.085938 L 12.007812 237.039062 L 11.914062 236.945312 L 11.804688 236.859375 L 11.746094 236.816406 L 11.621094 236.738281 L 11.554688 236.703125 L 11.40625 236.632812 L 11.332031 236.601562 L 11.167969 236.546875 L 11.082031 236.519531 L 10.992188 236.496094 L 10.898438 236.476562 L 10.800781 236.460938 L 10.699219 236.445312 L 10.59375 236.433594 L 10.488281 236.425781 L 10.375 236.417969 L 10.261719 236.414062 Z M 10.140625 236.410156 "/>
<path style=" stroke:none;fill-rule:evenodd;fill:rgb(0%,0%,0%);fill-opacity:1;" d="M 6 233.972656 L 5.078125 233.972656 L 5.078125 233.007812 L 6 233.007812 Z M 13.046875 233.972656 L 7.234375 233.972656 L 7.234375 233.007812 L 13.046875 233.007812 Z M 13.046875 233.972656 "/>
<path style=" stroke:none;fill-rule:evenodd;fill:rgb(0%,0%,0%);fill-opacity:1;" d="M 13.003906 229.289062 L 13.015625 229.332031 L 13.027344 229.378906 L 13.039062 229.421875 L 13.046875 229.46875 L 13.058594 229.511719 L 13.066406 229.558594 L 13.074219 229.601562 L 13.089844 229.695312 L 13.09375 229.742188 L 13.101562 229.785156 L 13.109375 229.835938 L 13.113281 229.882812 L 13.121094 229.933594 L 13.125 229.984375 L 13.128906 230.039062 L 13.128906 230.09375 L 13.132812 230.148438 L 13.132812 230.265625 L 13.121094 230.488281 L 13.082031 230.683594 L 13.015625 230.859375 L 12.921875 231.011719 L 12.804688 231.136719 L 12.660156 231.242188 L 12.488281 231.324219 L 12.292969 231.382812 L 12.066406 231.414062 L 11.816406 231.425781 L 7.9375 231.425781 L 7.9375 232.097656 L 7.234375 232.097656 L 7.234375 231.390625 L 5.9375 231.105469 L 5.9375 230.460938 L 7.234375 230.460938 L 7.234375 229.386719 L 7.9375 229.386719 L 7.9375 230.460938 L 11.6875 230.460938 L 11.765625 230.457031 L 11.835938 230.449219 L 11.902344 230.4375 L 11.964844 230.425781 L 12.023438 230.414062 L 12.074219 230.394531 L 12.121094 230.375 L 12.199219 230.328125 L 12.230469 230.296875 L 12.285156 230.226562 L 12.304688 230.183594 L 12.324219 230.136719 L 12.339844 230.085938 L 12.351562 230.035156 L 12.359375 229.976562 L 12.363281 229.914062 L 12.363281 229.738281 L 12.359375 229.710938 L 12.359375 229.683594 L 12.355469 229.65625 L 12.351562 229.632812 L 12.34375 229.578125 L 12.339844 229.554688 L 12.335938 229.523438 L 12.328125 229.496094 L 12.320312 229.441406 L 12.3125 229.410156 L 12.308594 229.382812 L 12.300781 229.351562 L 12.296875 229.320312 L 12.289062 229.289062 Z M 13.003906 229.289062 "/>
</g>
</svg>
